<?xml version="1.0" encoding="utf-8" standalone="no"?>
<!DOCTYPE svg PUBLIC "-//W3C//DTD SVG 1.1//EN"
  "http://www.w3.org/Graphics/SVG/1.1/DTD/svg11.dtd">
<!-- Created with matplotlib (http://matplotlib.sourceforge.net/) -->
<svg height="432pt" version="1.1" viewBox="0 0 576 432" width="576pt" xmlns="http://www.w3.org/2000/svg" xmlns:xlink="http://www.w3.org/1999/xlink">
 <defs>
  <style type="text/css">
*{stroke-linecap:square;stroke-linejoin:round;}
  </style>
 </defs>
 <g id="figure_1">
  <g id="patch_1">
   <path d="
M0 432
L576 432
L576 0
L0 0
z
" style="fill:#ffffff;"/>
  </g>
  <g id="axes_1">
   <g id="patch_2">
    <path d="
M72 388.8
L518.4 388.8
L518.4 43.2
L72 43.2
z
" style="fill:#ffffff;"/>
   </g>
   <g id="line2d_1">
    <path clip-path="url(#p7ff5b81e1d)" d="
M72 288.278
L72.93 185.559
L73.86 157.735
L74.79 142.951
L75.72 211.384
L76.65 238.795
L77.58 226.391
L78.51 208.992
L79.44 214.696
L80.37 242.247
L81.3 264.678
L82.23 253.38
L83.16 254.709
L84.09 255.163
L85.02 267.636
L85.95 256.15
L86.88 266.191
L87.81 278.601
L88.74 280.045
L89.67 270.229
L90.6 271.601
L91.53 281.537
L92.46 285.182
L93.39 293.687
L94.32 297.919
L96.18 312.163
L97.11 318.521
L98.04 317.915
L98.97 313.741
L99.9 319.434
L100.83 319.737
L101.76 322.12
L102.69 323.511
L103.62 328.272
L104.55 326.715
L106.41 335.32
L107.34 333.531
L109.2 341.063
L110.13 344.614
L111.06 338.496
L111.99 341.927
L112.92 336.602
L113.85 339.941
L114.78 334.712
L115.71 337.939
L116.64 338.422
L117.57 341.457
L118.5 338.573
L119.43 334.987
L122.22 343.454
L123.15 339.001
L124.08 337.004
L125.01 337.043
L125.94 334.788
L127.8 339.884
L128.73 336.453
L129.66 338.893
L130.59 335.063
L131.52 337.45
L132.45 339.079
L133.38 336.951
L136.17 343.518
L137.1 345.584
L138.03 342.547
L138.96 342.972
L139.89 344.962
L140.82 345.708
L141.75 342.483
L142.68 343.589
L143.61 340.403
L144.54 342.299
L145.47 339.79
L147.33 343.458
L149.19 337.725
L150.12 339.519
L151.05 340.879
L151.98 341.422
L152.91 341.147
L153.84 341.936
L154.77 343.584
L155.7 344.657
L156.63 346.239
L157.56 345.691
L158.49 343.101
L159.42 343.345
L160.35 341.876
L163.14 346.353
L164.07 344.791
L165 345.415
L165.93 345.228
L166.86 345.296
L167.79 344.454
L168.72 342.502
L169.65 341.591
L170.58 341.267
L172.44 343.998
L173.37 343.247
L174.3 340.939
L176.16 343.581
L177.09 344.42
L178.95 346.758
L179.88 347.73
L180.81 347.143
L181.74 346.331
L182.67 347.53
L183.6 348.484
L184.53 347.379
L185.46 346.5
L186.39 346.793
L187.32 346.849
L188.25 347.939
L189.18 346.062
L190.11 346.77
L191.04 345.829
L191.97 346.939
L192.9 347.534
L193.83 347.539
L194.76 345.576
L195.69 346.487
L196.62 344.543
L197.55 345.064
L201.27 349.211
L202.2 349.792
L204.99 344.365
L205.92 344.25
L206.85 343.747
L207.78 343.742
L208.71 344.628
L209.64 345.073
L210.57 344.769
L211.5 344.032
L212.43 344.994
L213.36 343.755
L215.22 345.57
L216.15 344.135
L217.08 344.348
L218.01 345.237
L218.94 344.756
L220.8 346.451
L221.73 345.695
L223.59 347.419
L224.52 345.811
L225.45 346.681
L226.38 345.305
L231.03 349.498
L231.96 347.978
L232.89 348.796
L233.82 347.471
L235.68 349.022
L236.61 348.01
L237.54 348.765
L238.47 347.309
L240.33 348.879
L241.26 347.594
L244.05 349.872
L244.98 350.134
L247.77 352.25
L249.63 353.686
L250.56 353.148
L251.49 352.185
L252.42 352.893
L253.35 353.286
L254.28 353.904
L255.21 354.33
L256.14 353.017
L257.07 353.483
L260.79 356.164
L262.65 353.577
L263.58 353.061
L264.51 353.136
L265.44 352.583
L266.37 353.225
L268.23 354.036
L269.16 354.38
L270.09 355.006
L271.02 353.753
L273.81 355.516
L274.74 354.455
L275.67 354.001
L276.6 354.052
L278.46 355.19
L279.39 355.296
L280.32 355.896
L281.25 354.679
L282.18 353.779
L283.11 353.252
L284.97 351.068
L287.76 352.733
L288.69 352.524
L289.62 353.11
L290.55 352.045
L292.41 353.206
L294.27 353.27
L295.2 353.839
L296.13 353.527
L299.85 355.738
L300.78 355.174
L306.36 358.355
L307.29 358.706
L308.22 357.658
L311.94 359.697
L312.87 358.999
L313.8 358.735
L315.66 359.735
L316.59 359.773
L317.52 360.265
L318.45 359.216
L320.31 360.192
L321.24 359.399
L322.17 359.203
L324.03 359.558
L324.96 358.737
L325.89 358.767
L329.61 360.654
L330.54 360.638
L331.47 360.258
L333.33 361.151
L334.26 360.503
L335.19 359.586
L336.12 360.044
L337.05 359.791
L338.91 358.116
L340.77 359.027
L341.7 358.764
L342.63 357.912
L343.56 357.522
L344.49 356.659
L346.35 357.558
L347.28 356.631
L348.21 357.079
L349.14 356.642
L351.93 357.911
L352.86 357.743
L354.72 355.99
L356.58 356.865
L357.51 356.027
L358.44 356.137
L359.37 355.327
L360.3 355.729
L361.23 355.074
L362.16 355.249
L363.09 354.526
L364.02 354.957
L364.95 355.056
L365.88 355.44
L366.81 354.58
L367.74 353.88
L368.67 354.193
L369.6 354.044
L370.53 354.467
L372.39 352.839
L373.32 352.762
L375.18 351.263
L376.11 351.686
L377.04 351.601
L377.97 352.021
L378.9 351.244
L379.83 351.502
L380.76 351.114
L381.69 350.998
L382.62 350.25
L383.55 350.442
L384.48 349.793
L387.27 351.019
L388.2 350.819
L389.13 351.226
L390.06 350.788
L390.99 351.149
L391.92 350.827
L392.85 350.366
L393.78 350.561
L396.57 351.544
L397.5 351.657
L398.43 352.051
L399.36 351.511
L401.22 352.292
L402.15 352.481
L403.08 352.867
L404.01 352.387
L404.94 351.634
L405.87 351.138
L406.8 351.452
L407.73 351.073
L409.59 351.828
L410.52 351.855
L412.38 352.609
L413.31 352.292
L414.24 352.172
L415.17 351.788
L416.1 352.161
L417.96 350.839
L418.89 351.203
L419.82 351.433
L420.75 351.532
L421.68 351.899
L422.61 351.875
L423.54 351.221
L424.47 351.586
L425.4 351.532
L428.19 352.615
L429.12 351.925
L430.05 352.143
L430.98 352.499
L431.91 352.666
L432.84 352.028
L433.77 351.764
L439.35 353.841
L440.28 353.226
L441.21 353.121
L442.14 352.798
L443.07 352.135
L444 352.312
L446.79 353.333
L447.72 352.688
L448.65 353.027
L449.58 353.212
L450.51 352.731
L451.44 352.392
L452.37 352.379
L453.3 351.774
L454.23 352.101
L455.16 351.457
L456.09 351.059
L457.02 351.391
L457.95 351.333
L458.88 351.666
L460.74 352.024
L461.67 352.259
L462.6 351.663
L463.53 351.439
L464.46 351.756
L465.39 351.776
L467.25 351.404
L469.11 350.185
L470.04 349.887
L471.9 348.719
L474.69 349.611
L475.62 349.324
L477.48 349.968
L478.41 349.727
L479.34 350.036
L481.2 348.956
L482.13 348.566
L483.06 347.977
L485.85 348.767
L486.78 348.22
L488.64 348.762
L490.5 349.389
L491.43 349.502
L494.22 347.828
L497.94 349.042
L498.87 348.622
L500.73 349.185
L502.59 348.145
L503.52 347.608
L505.38 348.146
L508.17 346.573
L510.96 347.484
L511.89 347.2
L514.68 348.027
L515.61 348.324
L516.54 348.392
L517.47 348.008
L518.4 347.46
L518.4 347.46" style="fill:none;stroke:#ff0000;stroke-width:2;"/>
   </g>
   <g id="line2d_2">
    <path clip-path="url(#p7ff5b81e1d)" d="
M72.93 327.918
L73.86 262.567
L74.79 225.482
L75.72 348.32
L76.65 363
L78.51 309.407
L79.44 304.573
L80.37 337.994
L81.3 361.289
L82.23 344.442
L84.09 333.255
L85.02 344.253
L85.95 331.213
L86.88 339.372
L87.81 351.649
L88.74 349.302
L89.67 338.643
L90.6 336.81
L91.53 346.626
L92.46 347.832
L93.39 355.904
L94.32 358.198
L96.18 371.12
L97.11 376.675
L98.04 374.076
L98.97 368.623
L99.9 373.667
L100.83 372.279
L101.76 373.277
L102.69 373.236
L103.62 377.444
L104.55 374.615
L106.41 382.16
L107.34 379.301
L109.2 385.775
L110.13 388.8
L111.06 383.252
L111.99 386.168
L112.92 381.074
L113.85 383.925
L114.78 378.939
L115.71 381.693
L116.64 381.294
L117.57 383.883
L118.5 380.541
L119.43 376.733
L121.29 381.689
L122.22 384.007
L123.15 379.758
L124.08 377.234
L125.01 376.579
L125.94 373.9
L127.8 378.346
L128.73 374.878
L129.66 377.005
L130.59 373.311
L131.52 375.395
L132.45 376.584
L133.38 374.127
L136.17 379.836
L137.1 381.615
L138.03 378.566
L138.96 378.507
L139.89 380.23
L140.82 380.537
L141.75 377.422
L142.68 378.141
L143.61 375.072
L144.54 376.728
L145.47 374.138
L147.33 377.343
L149.19 371.722
L150.12 373.297
L151.05 374.369
L151.98 374.544
L152.91 373.897
L153.84 374.356
L154.77 375.803
L155.7 376.591
L156.63 377.976
L157.56 377.105
L158.49 374.588
L159.42 374.504
L160.35 372.844
L163.14 376.794
L164.07 375.081
L165 375.43
L165.93 374.951
L166.86 374.73
L167.79 373.652
L168.72 371.671
L169.65 370.54
L170.58 369.952
L172.44 372.406
L173.37 371.434
L174.3 369.233
L176.16 371.61
L177.09 372.252
L178.02 373.38
L179.88 375.101
L180.81 374.306
L181.74 373.313
L182.67 374.389
L183.6 375.186
L184.53 373.95
L185.46 372.911
L186.39 372.997
L187.32 372.843
L188.25 373.814
L189.18 371.993
L190.11 372.536
L191.04 371.461
L191.97 372.467
L192.9 372.893
L193.83 372.706
L194.76 370.846
L195.69 371.631
L196.62 369.788
L197.55 370.144
L201.27 373.902
L202.2 374.334
L204.99 369.152
L205.92 368.868
L206.85 368.216
L207.78 368.044
L208.71 368.828
L209.64 369.126
L210.57 368.669
L211.5 367.818
L212.43 368.698
L213.36 367.427
L215.22 369.071
L216.15 367.653
L217.08 367.72
L218.01 368.526
L218.94 367.918
L220.8 369.444
L221.73 368.593
L223.59 370.163
L224.52 368.634
L225.45 369.43
L226.38 368.077
L231.03 371.903
L231.96 370.451
L232.89 371.196
L233.82 369.893
L235.68 371.294
L236.61 370.245
L237.54 370.925
L238.47 369.528
L240.33 370.961
L241.26 369.699
L244.05 371.77
L244.98 371.921
L247.77 373.824
L249.63 375.127
L250.56 374.504
L251.49 373.514
L252.42 374.158
L253.35 374.457
L254.28 375.001
L255.21 375.337
L256.14 374.076
L257.07 374.456
L260.79 376.889
L262.65 374.409
L263.58 373.817
L264.51 373.793
L265.44 373.169
L266.37 373.752
L268.23 374.4
L269.16 374.66
L270.09 375.228
L271.02 374.03
L272.88 375.175
L273.81 375.612
L274.74 374.567
L275.67 374.041
L276.6 374.001
L278.46 375.024
L279.39 375.042
L280.32 375.589
L281.25 374.429
L282.18 373.521
L283.11 372.934
L284.97 370.811
L287.76 372.313
L288.69 372.025
L289.62 372.561
L290.55 371.526
L292.41 372.589
L294.27 372.492
L295.2 373.013
L296.13 372.631
L299.85 374.655
L300.78 374.046
L306.36 376.951
L307.29 377.241
L308.22 376.234
L311.94 378.094
L312.87 377.375
L313.8 377.048
L315.66 377.961
L316.59 377.931
L317.52 378.38
L318.45 377.379
L320.31 378.27
L321.24 377.476
L322.17 377.218
L324.03 377.447
L324.96 376.633
L325.89 376.598
L329.61 378.323
L330.54 378.244
L331.47 377.817
L333.33 378.629
L334.26 377.966
L335.19 377.079
L336.12 377.499
L337.05 377.192
L338.91 375.55
L340.77 376.387
L341.7 376.072
L342.63 375.241
L343.56 374.809
L344.49 373.969
L346.35 374.797
L347.28 373.907
L348.21 374.319
L349.14 373.846
L351.93 375.004
L352.86 374.783
L354.72 373.091
L356.58 373.896
L357.51 373.083
L358.44 373.139
L359.37 372.348
L360.3 372.713
L361.23 372.052
L362.16 372.177
L363.09 371.459
L364.02 371.857
L364.95 371.904
L365.88 372.251
L367.74 370.726
L368.67 370.997
L369.6 370.799
L370.53 371.19
L372.39 369.61
L373.32 369.483
L375.18 368.011
L376.11 368.404
L377.04 368.269
L377.97 368.659
L378.9 367.901
L379.83 368.116
L380.76 367.696
L381.69 367.531
L382.62 366.799
L383.55 366.946
L384.48 366.297
L387.27 367.436
L388.2 367.192
L389.13 367.571
L390.06 367.108
L390.99 367.437
L391.92 367.08
L392.85 366.597
L393.78 366.749
L396.57 367.634
L397.5 367.703
L398.43 368.069
L399.36 367.519
L401.22 368.246
L402.15 368.395
L403.08 368.754
L404.01 368.258
L404.94 367.529
L405.87 367.019
L406.8 367.3
L407.73 366.895
L409.59 367.598
L410.52 367.582
L412.38 368.284
L413.31 367.938
L414.24 367.776
L415.17 367.369
L416.1 367.717
L417.96 366.42
L418.89 366.758
L419.82 366.953
L420.75 367.012
L421.68 367.355
L422.61 367.29
L423.54 366.648
L424.47 366.99
L425.4 366.895
L428.19 367.907
L429.12 367.238
L430.05 367.421
L430.98 367.754
L431.91 367.885
L432.84 367.259
L433.77 366.965
L439.35 368.903
L440.28 368.297
L441.21 368.156
L442.14 367.809
L443.07 367.164
L444 367.308
L446.79 368.262
L447.72 367.634
L448.65 367.95
L449.58 368.104
L450.51 367.616
L451.44 367.255
L452.37 367.206
L453.3 366.612
L454.23 366.917
L455.16 366.291
L456.09 365.878
L457.02 366.188
L457.95 366.095
L458.88 366.407
L460.74 366.703
L461.67 366.91
L462.6 366.326
L463.53 366.074
L464.46 366.37
L465.39 366.355
L467.25 365.925
L469.11 364.736
L470.04 364.415
L471.9 363.27
L474.69 364.096
L475.62 363.786
L477.48 364.392
L478.41 364.126
L479.34 364.415
L481.2 363.347
L482.13 362.945
L483.06 362.37
L485.85 363.091
L486.78 362.552
L488.64 363.05
L490.5 363.641
L491.43 363.723
L494.22 362.082
L497.94 363.221
L498.87 362.794
L500.73 363.317
L502.59 362.291
L503.52 361.762
L505.38 362.259
L508.17 360.709
L510.96 361.568
L511.89 361.265
L514.68 362.035
L515.61 362.315
L516.54 362.354
L517.47 361.962
L518.4 361.426
L518.4 361.426" style="fill:none;stroke:#00ff00;"/>
   </g>
   <g id="line2d_3">
    <path clip-path="url(#p7ff5b81e1d)" d="
M72.93 43.2
L73.86 52.9033
L74.79 60.4188
L75.72 74.4482
L76.65 114.589
L77.58 117.576
L78.51 108.578
L79.44 124.819
L81.3 168.068
L82.23 162.318
L83.16 170.614
L84.09 177.07
L85.02 191.018
L85.95 181.087
L87.81 205.554
L88.74 210.788
L89.67 201.814
L90.6 206.391
L91.53 216.448
L92.46 222.533
L93.39 231.47
L94.32 237.64
L96.18 253.205
L97.11 260.367
L98.04 261.754
L98.97 258.86
L99.9 265.201
L100.83 267.196
L101.76 270.964
L102.69 273.787
L103.62 279.1
L104.55 278.814
L106.41 288.479
L107.34 287.76
L109.2 296.35
L110.13 300.428
L111.06 293.74
L111.99 297.686
L112.92 292.13
L113.85 295.957
L114.78 290.486
L115.71 294.184
L116.64 295.55
L117.57 299.032
L118.5 296.605
L119.43 293.242
L122.22 302.901
L123.15 298.244
L124.08 296.775
L125.01 297.507
L125.94 295.676
L127.8 301.422
L128.73 298.028
L129.66 300.782
L130.59 296.814
L131.52 299.504
L132.45 301.575
L133.38 299.775
L136.17 307.2
L137.1 309.552
L138.03 306.528
L138.96 307.436
L139.89 309.693
L140.82 310.879
L141.75 307.544
L142.68 309.036
L143.61 305.734
L144.54 307.87
L145.47 305.442
L147.33 309.574
L149.19 303.728
L150.12 305.74
L151.05 307.388
L151.98 308.299
L152.91 308.396
L153.84 309.517
L154.77 311.365
L155.7 312.723
L156.63 314.502
L157.56 314.278
L158.49 311.614
L159.42 312.186
L160.35 310.909
L163.14 315.913
L164.07 314.501
L165 315.4
L165.93 315.505
L166.86 315.861
L167.79 315.257
L168.72 313.333
L169.65 312.642
L170.58 312.582
L172.44 315.591
L173.37 315.06
L174.3 312.646
L176.16 315.552
L177.09 316.589
L178.95 319.218
L179.88 320.36
L180.81 319.98
L181.74 319.35
L182.67 320.672
L183.6 321.783
L184.53 320.809
L185.46 320.09
L186.39 320.59
L187.32 320.856
L188.25 322.063
L189.18 320.13
L190.11 321.004
L191.04 320.196
L191.97 321.412
L192.9 322.175
L193.83 322.372
L194.76 320.306
L195.69 321.342
L196.62 319.298
L197.55 319.984
L201.27 324.52
L202.2 325.25
L204.99 319.578
L205.92 319.633
L206.85 319.279
L207.78 319.44
L208.71 320.428
L209.64 321.02
L210.57 320.869
L211.5 320.247
L212.43 321.291
L213.36 320.082
L215.22 322.069
L216.15 320.616
L217.08 320.976
L218.01 321.948
L218.94 321.595
L220.8 323.459
L221.73 322.796
L223.59 324.675
L224.52 322.988
L225.45 323.931
L226.38 322.533
L231.03 327.093
L231.96 325.506
L232.89 326.395
L233.82 325.049
L235.68 326.75
L236.61 325.775
L237.54 326.605
L238.47 325.089
L240.33 326.797
L241.26 325.49
L244.05 327.974
L244.98 328.348
L248.7 331.464
L249.63 332.245
L250.56 331.792
L251.49 330.856
L252.42 331.628
L253.35 332.116
L254.28 332.807
L255.21 333.323
L256.14 331.959
L257.07 332.51
L260.79 335.438
L262.65 332.744
L263.58 332.304
L264.51 332.479
L265.44 331.996
L266.37 332.698
L270.09 334.784
L271.02 333.477
L273.81 335.42
L274.74 334.343
L275.67 333.961
L276.6 334.102
L278.46 335.357
L279.39 335.55
L280.32 336.203
L281.25 334.929
L282.18 334.038
L283.11 333.571
L284.04 332.545
L284.97 331.324
L287.76 333.153
L288.69 333.024
L289.62 333.659
L290.55 332.564
L292.41 333.823
L294.27 334.049
L295.2 334.664
L296.13 334.422
L299.85 336.821
L300.78 336.301
L306.36 339.759
L307.29 340.17
L308.22 339.082
L311.94 341.301
L312.87 340.622
L313.8 340.422
L315.66 341.508
L316.59 341.616
L317.52 342.151
L318.45 341.053
L320.31 342.114
L321.24 341.321
L322.17 341.189
L324.03 341.669
L324.96 340.842
L325.89 340.936
L329.61 342.984
L330.54 343.032
L331.47 342.699
L333.33 343.673
L334.26 343.04
L335.19 342.093
L336.12 342.589
L337.05 342.39
L338.91 340.682
L340.77 341.667
L341.7 341.457
L342.63 340.584
L343.56 340.236
L344.49 339.348
L346.35 340.32
L347.28 339.355
L348.21 339.839
L349.14 339.439
L351.93 340.818
L352.86 340.704
L354.72 338.89
L356.58 339.833
L357.51 338.972
L358.44 339.136
L359.37 338.307
L360.3 338.745
L361.23 338.095
L362.16 338.322
L363.09 337.593
L364.02 338.056
L364.95 338.208
L365.88 338.628
L366.81 337.737
L367.74 337.035
L368.67 337.389
L369.6 337.29
L370.53 337.744
L372.39 336.067
L373.32 336.042
L374.25 335.358
L375.18 334.515
L376.11 334.969
L377.04 334.934
L377.97 335.384
L378.9 334.588
L379.83 334.888
L380.76 334.533
L381.69 334.464
L382.62 333.701
L383.55 333.938
L384.48 333.288
L387.27 334.602
L388.2 334.445
L389.13 334.881
L390.06 334.468
L390.99 334.862
L391.92 334.574
L392.85 334.136
L393.78 334.372
L396.57 335.455
L397.5 335.612
L398.43 336.033
L399.36 335.503
L401.22 336.338
L402.15 336.567
L403.08 336.98
L404.01 336.516
L404.94 335.74
L405.87 335.258
L406.8 335.603
L407.73 335.251
L409.59 336.058
L410.52 336.129
L412.38 336.934
L413.31 336.647
L414.24 336.567
L415.17 336.208
L416.1 336.606
L417.96 335.259
L418.89 335.648
L419.82 335.913
L420.75 336.052
L421.68 336.443
L422.61 336.46
L423.54 335.793
L424.47 336.183
L425.4 336.168
L428.19 337.323
L429.12 336.613
L430.05 336.864
L430.98 337.244
L431.91 337.447
L432.84 336.797
L433.77 336.563
L439.35 338.78
L440.28 338.154
L441.21 338.085
L442.14 337.787
L443.07 337.105
L444 337.316
L446.79 338.404
L447.72 337.742
L448.65 338.103
L449.58 338.321
L450.51 337.846
L451.44 337.528
L452.37 337.552
L453.3 336.935
L454.23 337.285
L455.16 336.623
L456.09 336.241
L457.02 336.594
L457.95 336.571
L458.88 336.925
L460.74 337.344
L461.67 337.607
L462.6 337
L463.53 336.804
L464.46 337.143
L465.39 337.197
L467.25 336.884
L469.11 335.635
L470.04 335.359
L471.9 334.169
L474.69 335.126
L475.62 334.861
L477.48 335.544
L478.41 335.328
L479.34 335.657
L481.2 334.565
L482.13 334.187
L483.06 333.584
L485.85 334.443
L486.78 333.888
L488.64 334.474
L490.5 335.138
L491.43 335.281
L494.22 333.575
L497.94 334.863
L498.87 334.45
L500.73 335.053
L501.66 334.59
L503.52 333.453
L505.38 334.032
L508.17 332.437
L510.96 333.4
L511.89 333.135
L514.68 334.019
L515.61 334.333
L516.54 334.429
L517.47 334.055
L518.4 333.494
L518.4 333.494" style="fill:none;stroke:#00ff00;"/>
   </g>
   <g id="matplotlib.axis_1">
    <g id="xtick_1">
     <g id="line2d_4">
      <path clip-path="url(#p7ff5b81e1d)" d="
M164.07 388.8
L164.07 43.2" style="fill:none;stroke:#000000;stroke-dasharray:1.000000,3.000000;stroke-dashoffset:0.0;stroke-linecap:butt;stroke-width:0.5;"/>
     </g>
     <g id="line2d_5">
      <defs>
       <path d="
M0 0
L0 -4" id="m0012dd4eef" style="stroke:#000000;stroke-linecap:butt;stroke-width:0.5;"/>
      </defs>
      <g>
       <use style="stroke:#000000;stroke-linecap:butt;stroke-width:0.5;" x="164.07" xlink:href="#m0012dd4eef" y="388.8"/>
      </g>
     </g>
     <g id="line2d_6">
      <defs>
       <path d="
M0 0
L0 4" id="m476344969c" style="stroke:#000000;stroke-linecap:butt;stroke-width:0.5;"/>
      </defs>
      <g>
       <use style="stroke:#000000;stroke-linecap:butt;stroke-width:0.5;" x="164.07" xlink:href="#m476344969c" y="43.2"/>
      </g>
     </g>
     <g id="text_1">
      <!-- 100 -->
      <defs>
       <path d="
M12.4062 8.29688
L28.5156 8.29688
L28.5156 63.9219
L10.9844 60.4062
L10.9844 69.3906
L28.4219 72.9062
L38.2812 72.9062
L38.2812 8.29688
L54.3906 8.29688
L54.3906 0
L12.4062 0
z
" id="DejaVuSans-31"/>
       <path d="
M31.7812 66.4062
Q24.1719 66.4062 20.3281 58.9062
Q16.5 51.4219 16.5 36.375
Q16.5 21.3906 20.3281 13.8906
Q24.1719 6.39062 31.7812 6.39062
Q39.4531 6.39062 43.2812 13.8906
Q47.125 21.3906 47.125 36.375
Q47.125 51.4219 43.2812 58.9062
Q39.4531 66.4062 31.7812 66.4062
M31.7812 74.2188
Q44.0469 74.2188 50.5156 64.5156
Q56.9844 54.8281 56.9844 36.375
Q56.9844 17.9688 50.5156 8.26562
Q44.0469 -1.42188 31.7812 -1.42188
Q19.5312 -1.42188 13.0625 8.26562
Q6.59375 17.9688 6.59375 36.375
Q6.59375 54.8281 13.0625 64.5156
Q19.5312 74.2188 31.7812 74.2188" id="DejaVuSans-30"/>
      </defs>
      <g transform="translate(153.675 401.70625)scale(0.12 -0.12)">
       <use xlink:href="#DejaVuSans-31"/>
       <use x="63.623046875" xlink:href="#DejaVuSans-30"/>
       <use x="127.24609375" xlink:href="#DejaVuSans-30"/>
      </g>
     </g>
    </g>
    <g id="xtick_2">
     <g id="line2d_7">
      <path clip-path="url(#p7ff5b81e1d)" d="
M257.07 388.8
L257.07 43.2" style="fill:none;stroke:#000000;stroke-dasharray:1.000000,3.000000;stroke-dashoffset:0.0;stroke-linecap:butt;stroke-width:0.5;"/>
     </g>
     <g id="line2d_8">
      <g>
       <use style="stroke:#000000;stroke-linecap:butt;stroke-width:0.5;" x="257.07" xlink:href="#m0012dd4eef" y="388.8"/>
      </g>
     </g>
     <g id="line2d_9">
      <g>
       <use style="stroke:#000000;stroke-linecap:butt;stroke-width:0.5;" x="257.07" xlink:href="#m476344969c" y="43.2"/>
      </g>
     </g>
     <g id="text_2">
      <!-- 200 -->
      <defs>
       <path d="
M19.1875 8.29688
L53.6094 8.29688
L53.6094 0
L7.32812 0
L7.32812 8.29688
Q12.9375 14.1094 22.625 23.8906
Q32.3281 33.6875 34.8125 36.5312
Q39.5469 41.8438 41.4219 45.5312
Q43.3125 49.2188 43.3125 52.7812
Q43.3125 58.5938 39.2344 62.25
Q35.1562 65.9219 28.6094 65.9219
Q23.9688 65.9219 18.8125 64.3125
Q13.6719 62.7031 7.8125 59.4219
L7.8125 69.3906
Q13.7656 71.7812 18.9375 73
Q24.125 74.2188 28.4219 74.2188
Q39.75 74.2188 46.4844 68.5469
Q53.2188 62.8906 53.2188 53.4219
Q53.2188 48.9219 51.5312 44.8906
Q49.8594 40.875 45.4062 35.4062
Q44.1875 33.9844 37.6406 27.2188
Q31.1094 20.4531 19.1875 8.29688" id="DejaVuSans-32"/>
      </defs>
      <g transform="translate(246.455625 401.70625)scale(0.12 -0.12)">
       <use xlink:href="#DejaVuSans-32"/>
       <use x="63.623046875" xlink:href="#DejaVuSans-30"/>
       <use x="127.24609375" xlink:href="#DejaVuSans-30"/>
      </g>
     </g>
    </g>
    <g id="xtick_3">
     <g id="line2d_10">
      <path clip-path="url(#p7ff5b81e1d)" d="
M350.07 388.8
L350.07 43.2" style="fill:none;stroke:#000000;stroke-dasharray:1.000000,3.000000;stroke-dashoffset:0.0;stroke-linecap:butt;stroke-width:0.5;"/>
     </g>
     <g id="line2d_11">
      <g>
       <use style="stroke:#000000;stroke-linecap:butt;stroke-width:0.5;" x="350.07" xlink:href="#m0012dd4eef" y="388.8"/>
      </g>
     </g>
     <g id="line2d_12">
      <g>
       <use style="stroke:#000000;stroke-linecap:butt;stroke-width:0.5;" x="350.07" xlink:href="#m476344969c" y="43.2"/>
      </g>
     </g>
     <g id="text_3">
      <!-- 300 -->
      <defs>
       <path d="
M40.5781 39.3125
Q47.6562 37.7969 51.625 33
Q55.6094 28.2188 55.6094 21.1875
Q55.6094 10.4062 48.1875 4.48438
Q40.7656 -1.42188 27.0938 -1.42188
Q22.5156 -1.42188 17.6562 -0.515625
Q12.7969 0.390625 7.625 2.20312
L7.625 11.7188
Q11.7188 9.32812 16.5938 8.10938
Q21.4844 6.89062 26.8125 6.89062
Q36.0781 6.89062 40.9375 10.5469
Q45.7969 14.2031 45.7969 21.1875
Q45.7969 27.6406 41.2812 31.2656
Q36.7656 34.9062 28.7188 34.9062
L20.2188 34.9062
L20.2188 43.0156
L29.1094 43.0156
Q36.375 43.0156 40.2344 45.9219
Q44.0938 48.8281 44.0938 54.2969
Q44.0938 59.9062 40.1094 62.9062
Q36.1406 65.9219 28.7188 65.9219
Q24.6562 65.9219 20.0156 65.0312
Q15.375 64.1562 9.8125 62.3125
L9.8125 71.0938
Q15.4375 72.6562 20.3438 73.4375
Q25.25 74.2188 29.5938 74.2188
Q40.8281 74.2188 47.3594 69.1094
Q53.9062 64.0156 53.9062 55.3281
Q53.9062 49.2656 50.4375 45.0938
Q46.9688 40.9219 40.5781 39.3125" id="DejaVuSans-33"/>
      </defs>
      <g transform="translate(339.4734375 401.70625)scale(0.12 -0.12)">
       <use xlink:href="#DejaVuSans-33"/>
       <use x="63.623046875" xlink:href="#DejaVuSans-30"/>
       <use x="127.24609375" xlink:href="#DejaVuSans-30"/>
      </g>
     </g>
    </g>
    <g id="xtick_4">
     <g id="line2d_13">
      <path clip-path="url(#p7ff5b81e1d)" d="
M443.07 388.8
L443.07 43.2" style="fill:none;stroke:#000000;stroke-dasharray:1.000000,3.000000;stroke-dashoffset:0.0;stroke-linecap:butt;stroke-width:0.5;"/>
     </g>
     <g id="line2d_14">
      <g>
       <use style="stroke:#000000;stroke-linecap:butt;stroke-width:0.5;" x="443.07" xlink:href="#m0012dd4eef" y="388.8"/>
      </g>
     </g>
     <g id="line2d_15">
      <g>
       <use style="stroke:#000000;stroke-linecap:butt;stroke-width:0.5;" x="443.07" xlink:href="#m476344969c" y="43.2"/>
      </g>
     </g>
     <g id="text_4">
      <!-- 400 -->
      <defs>
       <path d="
M37.7969 64.3125
L12.8906 25.3906
L37.7969 25.3906
z

M35.2031 72.9062
L47.6094 72.9062
L47.6094 25.3906
L58.0156 25.3906
L58.0156 17.1875
L47.6094 17.1875
L47.6094 0
L37.7969 0
L37.7969 17.1875
L4.89062 17.1875
L4.89062 26.7031
z
" id="DejaVuSans-34"/>
      </defs>
      <g transform="translate(432.309375 401.70625)scale(0.12 -0.12)">
       <use xlink:href="#DejaVuSans-34"/>
       <use x="63.623046875" xlink:href="#DejaVuSans-30"/>
       <use x="127.24609375" xlink:href="#DejaVuSans-30"/>
      </g>
     </g>
    </g>
    <g id="text_5">
     <!-- outer iteration -->
     <defs>
      <path d="
M30.6094 48.3906
Q23.3906 48.3906 19.1875 42.75
Q14.9844 37.1094 14.9844 27.2969
Q14.9844 17.4844 19.1562 11.8438
Q23.3438 6.20312 30.6094 6.20312
Q37.7969 6.20312 41.9844 11.8594
Q46.1875 17.5312 46.1875 27.2969
Q46.1875 37.0156 41.9844 42.7031
Q37.7969 48.3906 30.6094 48.3906
M30.6094 56
Q42.3281 56 49.0156 48.375
Q55.7188 40.7656 55.7188 27.2969
Q55.7188 13.875 49.0156 6.21875
Q42.3281 -1.42188 30.6094 -1.42188
Q18.8438 -1.42188 12.1719 6.21875
Q5.51562 13.875 5.51562 27.2969
Q5.51562 40.7656 12.1719 48.375
Q18.8438 56 30.6094 56" id="DejaVuSans-6f"/>
      <path d="
M54.8906 33.0156
L54.8906 0
L45.9062 0
L45.9062 32.7188
Q45.9062 40.4844 42.875 44.3281
Q39.8438 48.1875 33.7969 48.1875
Q26.5156 48.1875 22.3125 43.5469
Q18.1094 38.9219 18.1094 30.9062
L18.1094 0
L9.07812 0
L9.07812 54.6875
L18.1094 54.6875
L18.1094 46.1875
Q21.3438 51.125 25.7031 53.5625
Q30.0781 56 35.7969 56
Q45.2188 56 50.0469 50.1719
Q54.8906 44.3438 54.8906 33.0156" id="DejaVuSans-6e"/>
      <path d="
M34.2812 27.4844
Q23.3906 27.4844 19.1875 25
Q14.9844 22.5156 14.9844 16.5
Q14.9844 11.7188 18.1406 8.90625
Q21.2969 6.10938 26.7031 6.10938
Q34.1875 6.10938 38.7031 11.4062
Q43.2188 16.7031 43.2188 25.4844
L43.2188 27.4844
z

M52.2031 31.2031
L52.2031 0
L43.2188 0
L43.2188 8.29688
Q40.1406 3.32812 35.5469 0.953125
Q30.9531 -1.42188 24.3125 -1.42188
Q15.9219 -1.42188 10.9531 3.29688
Q6 8.01562 6 15.9219
Q6 25.1406 12.1719 29.8281
Q18.3594 34.5156 30.6094 34.5156
L43.2188 34.5156
L43.2188 35.4062
Q43.2188 41.6094 39.1406 45
Q35.0625 48.3906 27.6875 48.3906
Q23 48.3906 18.5469 47.2656
Q14.1094 46.1406 10.0156 43.8906
L10.0156 52.2031
Q14.9375 54.1094 19.5781 55.0469
Q24.2188 56 28.6094 56
Q40.4844 56 46.3438 49.8438
Q52.2031 43.7031 52.2031 31.2031" id="DejaVuSans-61"/>
      <path id="DejaVuSans-20"/>
      <path d="
M9.42188 54.6875
L18.4062 54.6875
L18.4062 0
L9.42188 0
z

M9.42188 75.9844
L18.4062 75.9844
L18.4062 64.5938
L9.42188 64.5938
z
" id="DejaVuSans-69"/>
      <path d="
M8.5 21.5781
L8.5 54.6875
L17.4844 54.6875
L17.4844 21.9219
Q17.4844 14.1562 20.5 10.2656
Q23.5312 6.39062 29.5938 6.39062
Q36.8594 6.39062 41.0781 11.0312
Q45.3125 15.6719 45.3125 23.6875
L45.3125 54.6875
L54.2969 54.6875
L54.2969 0
L45.3125 0
L45.3125 8.40625
Q42.0469 3.42188 37.7188 1
Q33.4062 -1.42188 27.6875 -1.42188
Q18.2656 -1.42188 13.375 4.4375
Q8.5 10.2969 8.5 21.5781
M31.1094 56
z
" id="DejaVuSans-75"/>
      <path d="
M18.3125 70.2188
L18.3125 54.6875
L36.8125 54.6875
L36.8125 47.7031
L18.3125 47.7031
L18.3125 18.0156
Q18.3125 11.3281 20.1406 9.42188
Q21.9688 7.51562 27.5938 7.51562
L36.8125 7.51562
L36.8125 0
L27.5938 0
Q17.1875 0 13.2344 3.875
Q9.28125 7.76562 9.28125 18.0156
L9.28125 47.7031
L2.6875 47.7031
L2.6875 54.6875
L9.28125 54.6875
L9.28125 70.2188
z
" id="DejaVuSans-74"/>
      <path d="
M56.2031 29.5938
L56.2031 25.2031
L14.8906 25.2031
Q15.4844 15.9219 20.4844 11.0625
Q25.4844 6.20312 34.4219 6.20312
Q39.5938 6.20312 44.4531 7.46875
Q49.3125 8.73438 54.1094 11.2812
L54.1094 2.78125
Q49.2656 0.734375 44.1875 -0.34375
Q39.1094 -1.42188 33.8906 -1.42188
Q20.7969 -1.42188 13.1562 6.1875
Q5.51562 13.8125 5.51562 26.8125
Q5.51562 40.2344 12.7656 48.1094
Q20.0156 56 32.3281 56
Q43.3594 56 49.7812 48.8906
Q56.2031 41.7969 56.2031 29.5938
M47.2188 32.2344
Q47.125 39.5938 43.0938 43.9844
Q39.0625 48.3906 32.4219 48.3906
Q24.9062 48.3906 20.3906 44.1406
Q15.875 39.8906 15.1875 32.1719
z
" id="DejaVuSans-65"/>
      <path d="
M41.1094 46.2969
Q39.5938 47.1719 37.8125 47.5781
Q36.0312 48 33.8906 48
Q26.2656 48 22.1875 43.0469
Q18.1094 38.0938 18.1094 28.8125
L18.1094 0
L9.07812 0
L9.07812 54.6875
L18.1094 54.6875
L18.1094 46.1875
Q20.9531 51.1719 25.4844 53.5781
Q30.0312 56 36.5312 56
Q37.4531 56 38.5781 55.875
Q39.7031 55.7656 41.0625 55.5156
z
" id="DejaVuSans-72"/>
     </defs>
     <g transform="translate(252.470625 415.995)scale(0.12 -0.12)">
      <use xlink:href="#DejaVuSans-6f"/>
      <use x="61.181640625" xlink:href="#DejaVuSans-75"/>
      <use x="124.560546875" xlink:href="#DejaVuSans-74"/>
      <use x="163.76953125" xlink:href="#DejaVuSans-65"/>
      <use x="225.29296875" xlink:href="#DejaVuSans-72"/>
      <use x="266.40625" xlink:href="#DejaVuSans-20"/>
      <use x="298.193359375" xlink:href="#DejaVuSans-69"/>
      <use x="325.9765625" xlink:href="#DejaVuSans-74"/>
      <use x="365.185546875" xlink:href="#DejaVuSans-65"/>
      <use x="426.708984375" xlink:href="#DejaVuSans-72"/>
      <use x="467.822265625" xlink:href="#DejaVuSans-61"/>
      <use x="529.1015625" xlink:href="#DejaVuSans-74"/>
      <use x="568.310546875" xlink:href="#DejaVuSans-69"/>
      <use x="596.09375" xlink:href="#DejaVuSans-6f"/>
      <use x="657.275390625" xlink:href="#DejaVuSans-6e"/>
     </g>
    </g>
   </g>
   <g id="matplotlib.axis_2">
    <g id="ytick_1">
     <g id="line2d_16">
      <path clip-path="url(#p7ff5b81e1d)" d="
M72 346.166
L518.4 346.166" style="fill:none;stroke:#000000;stroke-dasharray:1.000000,3.000000;stroke-dashoffset:0.0;stroke-linecap:butt;stroke-width:0.5;"/>
     </g>
     <g id="line2d_17">
      <defs>
       <path d="
M0 0
L4 0" id="me8a85f7bf6" style="stroke:#000000;stroke-linecap:butt;stroke-width:0.5;"/>
      </defs>
      <g>
       <use style="stroke:#000000;stroke-linecap:butt;stroke-width:0.5;" x="72.0" xlink:href="#me8a85f7bf6" y="346.166351312"/>
      </g>
     </g>
     <g id="line2d_18">
      <defs>
       <path d="
M0 0
L-4 0" id="m1a32005dea" style="stroke:#000000;stroke-linecap:butt;stroke-width:0.5;"/>
      </defs>
      <g>
       <use style="stroke:#000000;stroke-linecap:butt;stroke-width:0.5;" x="518.4" xlink:href="#m1a32005dea" y="346.166351312"/>
      </g>
     </g>
     <g id="text_6">
      <!-- 0.03 -->
      <defs>
       <path d="
M10.6875 12.4062
L21 12.4062
L21 0
L10.6875 0
z
" id="DejaVuSans-2e"/>
      </defs>
      <g transform="translate(43.034375 350.534163812)scale(0.12 -0.12)">
       <use xlink:href="#DejaVuSans-30"/>
       <use x="63.623046875" xlink:href="#DejaVuSans-2e"/>
       <use x="95.41015625" xlink:href="#DejaVuSans-30"/>
       <use x="159.033203125" xlink:href="#DejaVuSans-33"/>
      </g>
     </g>
    </g>
    <g id="ytick_2">
     <g id="line2d_19">
      <path clip-path="url(#p7ff5b81e1d)" d="
M72 298.153
L518.4 298.153" style="fill:none;stroke:#000000;stroke-dasharray:1.000000,3.000000;stroke-dashoffset:0.0;stroke-linecap:butt;stroke-width:0.5;"/>
     </g>
     <g id="line2d_20">
      <g>
       <use style="stroke:#000000;stroke-linecap:butt;stroke-width:0.5;" x="72.0" xlink:href="#me8a85f7bf6" y="298.153085377"/>
      </g>
     </g>
     <g id="line2d_21">
      <g>
       <use style="stroke:#000000;stroke-linecap:butt;stroke-width:0.5;" x="518.4" xlink:href="#m1a32005dea" y="298.153085377"/>
      </g>
     </g>
     <g id="text_7">
      <!-- 0.04 -->
      <g transform="translate(42.745625 302.520897877)scale(0.12 -0.12)">
       <use xlink:href="#DejaVuSans-30"/>
       <use x="63.623046875" xlink:href="#DejaVuSans-2e"/>
       <use x="95.41015625" xlink:href="#DejaVuSans-30"/>
       <use x="159.033203125" xlink:href="#DejaVuSans-34"/>
      </g>
     </g>
    </g>
    <g id="ytick_3">
     <g id="line2d_22">
      <path clip-path="url(#p7ff5b81e1d)" d="
M72 250.14
L518.4 250.14" style="fill:none;stroke:#000000;stroke-dasharray:1.000000,3.000000;stroke-dashoffset:0.0;stroke-linecap:butt;stroke-width:0.5;"/>
     </g>
     <g id="line2d_23">
      <g>
       <use style="stroke:#000000;stroke-linecap:butt;stroke-width:0.5;" x="72.0" xlink:href="#me8a85f7bf6" y="250.139819442"/>
      </g>
     </g>
     <g id="line2d_24">
      <g>
       <use style="stroke:#000000;stroke-linecap:butt;stroke-width:0.5;" x="518.4" xlink:href="#m1a32005dea" y="250.139819442"/>
      </g>
     </g>
     <g id="text_8">
      <!-- 0.05 -->
      <defs>
       <path d="
M10.7969 72.9062
L49.5156 72.9062
L49.5156 64.5938
L19.8281 64.5938
L19.8281 46.7344
Q21.9688 47.4688 24.1094 47.8281
Q26.2656 48.1875 28.4219 48.1875
Q40.625 48.1875 47.75 41.5
Q54.8906 34.8125 54.8906 23.3906
Q54.8906 11.625 47.5625 5.09375
Q40.2344 -1.42188 26.9062 -1.42188
Q22.3125 -1.42188 17.5469 -0.640625
Q12.7969 0.140625 7.71875 1.70312
L7.71875 11.625
Q12.1094 9.23438 16.7969 8.0625
Q21.4844 6.89062 26.7031 6.89062
Q35.1562 6.89062 40.0781 11.3281
Q45.0156 15.7656 45.0156 23.3906
Q45.0156 31 40.0781 35.4375
Q35.1562 39.8906 26.7031 39.8906
Q22.75 39.8906 18.8125 39.0156
Q14.8906 38.1406 10.7969 36.2812
z
" id="DejaVuSans-35"/>
      </defs>
      <g transform="translate(43.120625 254.507631942)scale(0.12 -0.12)">
       <use xlink:href="#DejaVuSans-30"/>
       <use x="63.623046875" xlink:href="#DejaVuSans-2e"/>
       <use x="95.41015625" xlink:href="#DejaVuSans-30"/>
       <use x="159.033203125" xlink:href="#DejaVuSans-35"/>
      </g>
     </g>
    </g>
    <g id="ytick_4">
     <g id="line2d_25">
      <path clip-path="url(#p7ff5b81e1d)" d="
M72 202.127
L518.4 202.127" style="fill:none;stroke:#000000;stroke-dasharray:1.000000,3.000000;stroke-dashoffset:0.0;stroke-linecap:butt;stroke-width:0.5;"/>
     </g>
     <g id="line2d_26">
      <g>
       <use style="stroke:#000000;stroke-linecap:butt;stroke-width:0.5;" x="72.0" xlink:href="#me8a85f7bf6" y="202.126553507"/>
      </g>
     </g>
     <g id="line2d_27">
      <g>
       <use style="stroke:#000000;stroke-linecap:butt;stroke-width:0.5;" x="518.4" xlink:href="#m1a32005dea" y="202.126553507"/>
      </g>
     </g>
     <g id="text_9">
      <!-- 0.06 -->
      <defs>
       <path d="
M33.0156 40.375
Q26.375 40.375 22.4844 35.8281
Q18.6094 31.2969 18.6094 23.3906
Q18.6094 15.5312 22.4844 10.9531
Q26.375 6.39062 33.0156 6.39062
Q39.6562 6.39062 43.5312 10.9531
Q47.4062 15.5312 47.4062 23.3906
Q47.4062 31.2969 43.5312 35.8281
Q39.6562 40.375 33.0156 40.375
M52.5938 71.2969
L52.5938 62.3125
Q48.875 64.0625 45.0938 64.9844
Q41.3125 65.9219 37.5938 65.9219
Q27.8281 65.9219 22.6719 59.3281
Q17.5312 52.7344 16.7969 39.4062
Q19.6719 43.6562 24.0156 45.9219
Q28.375 48.1875 33.5938 48.1875
Q44.5781 48.1875 50.9531 41.5156
Q57.3281 34.8594 57.3281 23.3906
Q57.3281 12.1562 50.6875 5.35938
Q44.0469 -1.42188 33.0156 -1.42188
Q20.3594 -1.42188 13.6719 8.26562
Q6.98438 17.9688 6.98438 36.375
Q6.98438 53.6562 15.1875 63.9375
Q23.3906 74.2188 37.2031 74.2188
Q40.9219 74.2188 44.7031 73.4844
Q48.4844 72.75 52.5938 71.2969" id="DejaVuSans-36"/>
      </defs>
      <g transform="translate(42.828125 206.494366007)scale(0.12 -0.12)">
       <use xlink:href="#DejaVuSans-30"/>
       <use x="63.623046875" xlink:href="#DejaVuSans-2e"/>
       <use x="95.41015625" xlink:href="#DejaVuSans-30"/>
       <use x="159.033203125" xlink:href="#DejaVuSans-36"/>
      </g>
     </g>
    </g>
    <g id="ytick_5">
     <g id="line2d_28">
      <path clip-path="url(#p7ff5b81e1d)" d="
M72 154.113
L518.4 154.113" style="fill:none;stroke:#000000;stroke-dasharray:1.000000,3.000000;stroke-dashoffset:0.0;stroke-linecap:butt;stroke-width:0.5;"/>
     </g>
     <g id="line2d_29">
      <g>
       <use style="stroke:#000000;stroke-linecap:butt;stroke-width:0.5;" x="72.0" xlink:href="#me8a85f7bf6" y="154.113287572"/>
      </g>
     </g>
     <g id="line2d_30">
      <g>
       <use style="stroke:#000000;stroke-linecap:butt;stroke-width:0.5;" x="518.4" xlink:href="#m1a32005dea" y="154.113287572"/>
      </g>
     </g>
     <g id="text_10">
      <!-- 0.07 -->
      <defs>
       <path d="
M8.20312 72.9062
L55.0781 72.9062
L55.0781 68.7031
L28.6094 0
L18.3125 0
L43.2188 64.5938
L8.20312 64.5938
z
" id="DejaVuSans-37"/>
      </defs>
      <g transform="translate(43.098125 158.481100072)scale(0.12 -0.12)">
       <use xlink:href="#DejaVuSans-30"/>
       <use x="63.623046875" xlink:href="#DejaVuSans-2e"/>
       <use x="95.41015625" xlink:href="#DejaVuSans-30"/>
       <use x="159.033203125" xlink:href="#DejaVuSans-37"/>
      </g>
     </g>
    </g>
    <g id="ytick_6">
     <g id="line2d_31">
      <path clip-path="url(#p7ff5b81e1d)" d="
M72 106.1
L518.4 106.1" style="fill:none;stroke:#000000;stroke-dasharray:1.000000,3.000000;stroke-dashoffset:0.0;stroke-linecap:butt;stroke-width:0.5;"/>
     </g>
     <g id="line2d_32">
      <g>
       <use style="stroke:#000000;stroke-linecap:butt;stroke-width:0.5;" x="72.0" xlink:href="#me8a85f7bf6" y="106.100021637"/>
      </g>
     </g>
     <g id="line2d_33">
      <g>
       <use style="stroke:#000000;stroke-linecap:butt;stroke-width:0.5;" x="518.4" xlink:href="#m1a32005dea" y="106.100021637"/>
      </g>
     </g>
     <g id="text_11">
      <!-- 0.08 -->
      <defs>
       <path d="
M31.7812 34.625
Q24.75 34.625 20.7188 30.8594
Q16.7031 27.0938 16.7031 20.5156
Q16.7031 13.9219 20.7188 10.1562
Q24.75 6.39062 31.7812 6.39062
Q38.8125 6.39062 42.8594 10.1719
Q46.9219 13.9688 46.9219 20.5156
Q46.9219 27.0938 42.8906 30.8594
Q38.875 34.625 31.7812 34.625
M21.9219 38.8125
Q15.5781 40.375 12.0312 44.7188
Q8.5 49.0781 8.5 55.3281
Q8.5 64.0625 14.7188 69.1406
Q20.9531 74.2188 31.7812 74.2188
Q42.6719 74.2188 48.875 69.1406
Q55.0781 64.0625 55.0781 55.3281
Q55.0781 49.0781 51.5312 44.7188
Q48 40.375 41.7031 38.8125
Q48.8281 37.1562 52.7969 32.3125
Q56.7812 27.4844 56.7812 20.5156
Q56.7812 9.90625 50.3125 4.23438
Q43.8438 -1.42188 31.7812 -1.42188
Q19.7344 -1.42188 13.25 4.23438
Q6.78125 9.90625 6.78125 20.5156
Q6.78125 27.4844 10.7812 32.3125
Q14.7969 37.1562 21.9219 38.8125
M18.3125 54.3906
Q18.3125 48.7344 21.8438 45.5625
Q25.3906 42.3906 31.7812 42.3906
Q38.1406 42.3906 41.7188 45.5625
Q45.3125 48.7344 45.3125 54.3906
Q45.3125 60.0625 41.7188 63.2344
Q38.1406 66.4062 31.7812 66.4062
Q25.3906 66.4062 21.8438 63.2344
Q18.3125 60.0625 18.3125 54.3906" id="DejaVuSans-38"/>
      </defs>
      <g transform="translate(42.89375 110.467834137)scale(0.12 -0.12)">
       <use xlink:href="#DejaVuSans-30"/>
       <use x="63.623046875" xlink:href="#DejaVuSans-2e"/>
       <use x="95.41015625" xlink:href="#DejaVuSans-30"/>
       <use x="159.033203125" xlink:href="#DejaVuSans-38"/>
      </g>
     </g>
    </g>
    <g id="ytick_7">
     <g id="line2d_34">
      <path clip-path="url(#p7ff5b81e1d)" d="
M72 58.0868
L518.4 58.0868" style="fill:none;stroke:#000000;stroke-dasharray:1.000000,3.000000;stroke-dashoffset:0.0;stroke-linecap:butt;stroke-width:0.5;"/>
     </g>
     <g id="line2d_35">
      <g>
       <use style="stroke:#000000;stroke-linecap:butt;stroke-width:0.5;" x="72.0" xlink:href="#me8a85f7bf6" y="58.0867557017"/>
      </g>
     </g>
     <g id="line2d_36">
      <g>
       <use style="stroke:#000000;stroke-linecap:butt;stroke-width:0.5;" x="518.4" xlink:href="#m1a32005dea" y="58.0867557017"/>
      </g>
     </g>
     <g id="text_12">
      <!-- 0.09 -->
      <defs>
       <path d="
M10.9844 1.51562
L10.9844 10.5
Q14.7031 8.73438 18.5 7.8125
Q22.3125 6.89062 25.9844 6.89062
Q35.75 6.89062 40.8906 13.4531
Q46.0469 20.0156 46.7812 33.4062
Q43.9531 29.2031 39.5938 26.9531
Q35.25 24.7031 29.9844 24.7031
Q19.0469 24.7031 12.6719 31.3125
Q6.29688 37.9375 6.29688 49.4219
Q6.29688 60.6406 12.9375 67.4219
Q19.5781 74.2188 30.6094 74.2188
Q43.2656 74.2188 49.9219 64.5156
Q56.5938 54.8281 56.5938 36.375
Q56.5938 19.1406 48.4062 8.85938
Q40.2344 -1.42188 26.4219 -1.42188
Q22.7031 -1.42188 18.8906 -0.6875
Q15.0938 0.046875 10.9844 1.51562
M30.6094 32.4219
Q37.25 32.4219 41.125 36.9531
Q45.0156 41.5 45.0156 49.4219
Q45.0156 57.2812 41.125 61.8438
Q37.25 66.4062 30.6094 66.4062
Q23.9688 66.4062 20.0938 61.8438
Q16.2188 57.2812 16.2188 49.4219
Q16.2188 41.5 20.0938 36.9531
Q23.9688 32.4219 30.6094 32.4219" id="DejaVuSans-39"/>
      </defs>
      <g transform="translate(42.91625 62.4545682017)scale(0.12 -0.12)">
       <use xlink:href="#DejaVuSans-30"/>
       <use x="63.623046875" xlink:href="#DejaVuSans-2e"/>
       <use x="95.41015625" xlink:href="#DejaVuSans-30"/>
       <use x="159.033203125" xlink:href="#DejaVuSans-39"/>
      </g>
     </g>
    </g>
    <g id="text_13">
     <!-- estimate -->
     <defs>
      <path d="
M52 44.1875
Q55.375 50.25 60.0625 53.125
Q64.75 56 71.0938 56
Q79.6406 56 84.2812 50.0156
Q88.9219 44.0469 88.9219 33.0156
L88.9219 0
L79.8906 0
L79.8906 32.7188
Q79.8906 40.5781 77.0938 44.375
Q74.3125 48.1875 68.6094 48.1875
Q61.625 48.1875 57.5625 43.5469
Q53.5156 38.9219 53.5156 30.9062
L53.5156 0
L44.4844 0
L44.4844 32.7188
Q44.4844 40.625 41.7031 44.4062
Q38.9219 48.1875 33.1094 48.1875
Q26.2188 48.1875 22.1562 43.5312
Q18.1094 38.875 18.1094 30.9062
L18.1094 0
L9.07812 0
L9.07812 54.6875
L18.1094 54.6875
L18.1094 46.1875
Q21.1875 51.2188 25.4844 53.6094
Q29.7812 56 35.6875 56
Q41.6562 56 45.8281 52.9688
Q50 49.9531 52 44.1875" id="DejaVuSans-6d"/>
      <path d="
M44.2812 53.0781
L44.2812 44.5781
Q40.4844 46.5312 36.375 47.5
Q32.2812 48.4844 27.875 48.4844
Q21.1875 48.4844 17.8438 46.4375
Q14.5 44.3906 14.5 40.2812
Q14.5 37.1562 16.8906 35.375
Q19.2812 33.5938 26.5156 31.9844
L29.5938 31.2969
Q39.1562 29.25 43.1875 25.5156
Q47.2188 21.7812 47.2188 15.0938
Q47.2188 7.46875 41.1875 3.01562
Q35.1562 -1.42188 24.6094 -1.42188
Q20.2188 -1.42188 15.4531 -0.5625
Q10.6875 0.296875 5.42188 2
L5.42188 11.2812
Q10.4062 8.6875 15.2344 7.39062
Q20.0625 6.10938 24.8125 6.10938
Q31.1562 6.10938 34.5625 8.28125
Q37.9844 10.4531 37.9844 14.4062
Q37.9844 18.0625 35.5156 20.0156
Q33.0625 21.9688 24.7031 23.7812
L21.5781 24.5156
Q13.2344 26.2656 9.51562 29.9062
Q5.8125 33.5469 5.8125 39.8906
Q5.8125 47.6094 11.2812 51.7969
Q16.75 56 26.8125 56
Q31.7812 56 36.1719 55.2656
Q40.5781 54.5469 44.2812 53.0781" id="DejaVuSans-73"/>
     </defs>
     <g transform="translate(37.745625 241.580625)rotate(-90.0)scale(0.12 -0.12)">
      <use xlink:href="#DejaVuSans-65"/>
      <use x="61.5234375" xlink:href="#DejaVuSans-73"/>
      <use x="113.623046875" xlink:href="#DejaVuSans-74"/>
      <use x="152.83203125" xlink:href="#DejaVuSans-69"/>
      <use x="180.615234375" xlink:href="#DejaVuSans-6d"/>
      <use x="278.02734375" xlink:href="#DejaVuSans-61"/>
      <use x="339.306640625" xlink:href="#DejaVuSans-74"/>
      <use x="378.515625" xlink:href="#DejaVuSans-65"/>
     </g>
    </g>
   </g>
   <g id="patch_3">
    <path d="
M72 43.2
L518.4 43.2" style="fill:none;stroke:#000000;"/>
   </g>
   <g id="patch_4">
    <path d="
M518.4 388.8
L518.4 43.2" style="fill:none;stroke:#000000;"/>
   </g>
   <g id="patch_5">
    <path d="
M72 388.8
L518.4 388.8" style="fill:none;stroke:#000000;"/>
   </g>
   <g id="patch_6">
    <path d="
M72 388.8
L72 43.2" style="fill:none;stroke:#000000;"/>
   </g>
   <g id="text_14">
    <!-- DirectionalSampling convergence graph at level 0.95 -->
    <defs>
     <path d="
M9.42188 75.9844
L18.4062 75.9844
L18.4062 0
L9.42188 0
z
" id="DejaVuSans-6c"/>
     <path d="
M48.7812 52.5938
L48.7812 44.1875
Q44.9688 46.2969 41.1406 47.3438
Q37.3125 48.3906 33.4062 48.3906
Q24.6562 48.3906 19.8125 42.8438
Q14.9844 37.3125 14.9844 27.2969
Q14.9844 17.2812 19.8125 11.7344
Q24.6562 6.20312 33.4062 6.20312
Q37.3125 6.20312 41.1406 7.25
Q44.9688 8.29688 48.7812 10.4062
L48.7812 2.09375
Q45.0156 0.34375 40.9844 -0.53125
Q36.9688 -1.42188 32.4219 -1.42188
Q20.0625 -1.42188 12.7812 6.34375
Q5.51562 14.1094 5.51562 27.2969
Q5.51562 40.6719 12.8594 48.3281
Q20.2188 56 33.0156 56
Q37.1562 56 41.1094 55.1406
Q45.0625 54.2969 48.7812 52.5938" id="DejaVuSans-63"/>
     <path d="
M19.6719 64.7969
L19.6719 8.10938
L31.5938 8.10938
Q46.6875 8.10938 53.6875 14.9375
Q60.6875 21.7812 60.6875 36.5312
Q60.6875 51.1719 53.6875 57.9844
Q46.6875 64.7969 31.5938 64.7969
z

M9.8125 72.9062
L30.0781 72.9062
Q51.2656 72.9062 61.1719 64.0938
Q71.0938 55.2812 71.0938 36.5312
Q71.0938 17.6719 61.125 8.82812
Q51.1719 0 30.0781 0
L9.8125 0
z
" id="DejaVuSans-44"/>
     <path d="
M54.8906 33.0156
L54.8906 0
L45.9062 0
L45.9062 32.7188
Q45.9062 40.4844 42.875 44.3281
Q39.8438 48.1875 33.7969 48.1875
Q26.5156 48.1875 22.3125 43.5469
Q18.1094 38.9219 18.1094 30.9062
L18.1094 0
L9.07812 0
L9.07812 75.9844
L18.1094 75.9844
L18.1094 46.1875
Q21.3438 51.125 25.7031 53.5625
Q30.0781 56 35.7969 56
Q45.2188 56 50.0469 50.1719
Q54.8906 44.3438 54.8906 33.0156" id="DejaVuSans-68"/>
     <path d="
M53.5156 70.5156
L53.5156 60.8906
Q47.9062 63.5781 42.9219 64.8906
Q37.9375 66.2188 33.2969 66.2188
Q25.25 66.2188 20.875 63.0938
Q16.5 59.9688 16.5 54.2031
Q16.5 49.3594 19.4062 46.8906
Q22.3125 44.4375 30.4219 42.9219
L36.375 41.7031
Q47.4062 39.5938 52.6562 34.2969
Q57.9062 29 57.9062 20.125
Q57.9062 9.51562 50.7969 4.04688
Q43.7031 -1.42188 29.9844 -1.42188
Q24.8125 -1.42188 18.9688 -0.25
Q13.1406 0.921875 6.89062 3.21875
L6.89062 13.375
Q12.8906 10.0156 18.6562 8.29688
Q24.4219 6.59375 29.9844 6.59375
Q38.4219 6.59375 43.0156 9.90625
Q47.6094 13.2344 47.6094 19.3906
Q47.6094 24.75 44.3125 27.7812
Q41.0156 30.8125 33.5 32.3281
L27.4844 33.5
Q16.4531 35.6875 11.5156 40.375
Q6.59375 45.0625 6.59375 53.4219
Q6.59375 63.0938 13.4062 68.6562
Q20.2188 74.2188 32.1719 74.2188
Q37.3125 74.2188 42.625 73.2812
Q47.9531 72.3594 53.5156 70.5156" id="DejaVuSans-53"/>
     <path d="
M45.4062 27.9844
Q45.4062 37.75 41.375 43.1094
Q37.3594 48.4844 30.0781 48.4844
Q22.8594 48.4844 18.8281 43.1094
Q14.7969 37.75 14.7969 27.9844
Q14.7969 18.2656 18.8281 12.8906
Q22.8594 7.51562 30.0781 7.51562
Q37.3594 7.51562 41.375 12.8906
Q45.4062 18.2656 45.4062 27.9844
M54.3906 6.78125
Q54.3906 -7.17188 48.1875 -13.9844
Q42 -20.7969 29.2031 -20.7969
Q24.4688 -20.7969 20.2656 -20.0938
Q16.0625 -19.3906 12.1094 -17.9219
L12.1094 -9.1875
Q16.0625 -11.3281 19.9219 -12.3438
Q23.7812 -13.375 27.7812 -13.375
Q36.625 -13.375 41.0156 -8.76562
Q45.4062 -4.15625 45.4062 5.17188
L45.4062 9.625
Q42.625 4.78125 38.2812 2.39062
Q33.9375 0 27.875 0
Q17.8281 0 11.6719 7.65625
Q5.51562 15.3281 5.51562 27.9844
Q5.51562 40.6719 11.6719 48.3281
Q17.8281 56 27.875 56
Q33.9375 56 38.2812 53.6094
Q42.625 51.2188 45.4062 46.3906
L45.4062 54.6875
L54.3906 54.6875
z
" id="DejaVuSans-67"/>
     <path d="
M2.98438 54.6875
L12.5 54.6875
L29.5938 8.79688
L46.6875 54.6875
L56.2031 54.6875
L35.6875 0
L23.4844 0
z
" id="DejaVuSans-76"/>
     <path d="
M18.1094 8.20312
L18.1094 -20.7969
L9.07812 -20.7969
L9.07812 54.6875
L18.1094 54.6875
L18.1094 46.3906
Q20.9531 51.2656 25.2656 53.625
Q29.5938 56 35.5938 56
Q45.5625 56 51.7812 48.0938
Q58.0156 40.1875 58.0156 27.2969
Q58.0156 14.4062 51.7812 6.48438
Q45.5625 -1.42188 35.5938 -1.42188
Q29.5938 -1.42188 25.2656 0.953125
Q20.9531 3.32812 18.1094 8.20312
M48.6875 27.2969
Q48.6875 37.2031 44.6094 42.8438
Q40.5312 48.4844 33.4062 48.4844
Q26.2656 48.4844 22.1875 42.8438
Q18.1094 37.2031 18.1094 27.2969
Q18.1094 17.3906 22.1875 11.75
Q26.2656 6.10938 33.4062 6.10938
Q40.5312 6.10938 44.6094 11.75
Q48.6875 17.3906 48.6875 27.2969" id="DejaVuSans-70"/>
    </defs>
    <g transform="translate(103.879125 38.2)scale(0.144 -0.144)">
     <use xlink:href="#DejaVuSans-44"/>
     <use x="77.001953125" xlink:href="#DejaVuSans-69"/>
     <use x="104.78515625" xlink:href="#DejaVuSans-72"/>
     <use x="143.6484375" xlink:href="#DejaVuSans-65"/>
     <use x="205.171875" xlink:href="#DejaVuSans-63"/>
     <use x="260.15234375" xlink:href="#DejaVuSans-74"/>
     <use x="299.361328125" xlink:href="#DejaVuSans-69"/>
     <use x="327.14453125" xlink:href="#DejaVuSans-6f"/>
     <use x="388.326171875" xlink:href="#DejaVuSans-6e"/>
     <use x="451.705078125" xlink:href="#DejaVuSans-61"/>
     <use x="512.984375" xlink:href="#DejaVuSans-6c"/>
     <use x="540.767578125" xlink:href="#DejaVuSans-53"/>
     <use x="604.244140625" xlink:href="#DejaVuSans-61"/>
     <use x="665.5234375" xlink:href="#DejaVuSans-6d"/>
     <use x="762.935546875" xlink:href="#DejaVuSans-70"/>
     <use x="826.412109375" xlink:href="#DejaVuSans-6c"/>
     <use x="854.1953125" xlink:href="#DejaVuSans-69"/>
     <use x="881.978515625" xlink:href="#DejaVuSans-6e"/>
     <use x="945.357421875" xlink:href="#DejaVuSans-67"/>
     <use x="1008.83398438" xlink:href="#DejaVuSans-20"/>
     <use x="1040.62109375" xlink:href="#DejaVuSans-63"/>
     <use x="1095.6015625" xlink:href="#DejaVuSans-6f"/>
     <use x="1156.78320312" xlink:href="#DejaVuSans-6e"/>
     <use x="1220.16210938" xlink:href="#DejaVuSans-76"/>
     <use x="1279.34179688" xlink:href="#DejaVuSans-65"/>
     <use x="1340.86523438" xlink:href="#DejaVuSans-72"/>
     <use x="1380.22851562" xlink:href="#DejaVuSans-67"/>
     <use x="1443.70507812" xlink:href="#DejaVuSans-65"/>
     <use x="1505.22851562" xlink:href="#DejaVuSans-6e"/>
     <use x="1568.60742188" xlink:href="#DejaVuSans-63"/>
     <use x="1623.58789062" xlink:href="#DejaVuSans-65"/>
     <use x="1685.11132812" xlink:href="#DejaVuSans-20"/>
     <use x="1716.8984375" xlink:href="#DejaVuSans-67"/>
     <use x="1780.375" xlink:href="#DejaVuSans-72"/>
     <use x="1821.48828125" xlink:href="#DejaVuSans-61"/>
     <use x="1882.76757812" xlink:href="#DejaVuSans-70"/>
     <use x="1946.24414062" xlink:href="#DejaVuSans-68"/>
     <use x="2009.62304688" xlink:href="#DejaVuSans-20"/>
     <use x="2041.41015625" xlink:href="#DejaVuSans-61"/>
     <use x="2102.68945312" xlink:href="#DejaVuSans-74"/>
     <use x="2141.8984375" xlink:href="#DejaVuSans-20"/>
     <use x="2173.68554688" xlink:href="#DejaVuSans-6c"/>
     <use x="2201.46875" xlink:href="#DejaVuSans-65"/>
     <use x="2262.9921875" xlink:href="#DejaVuSans-76"/>
     <use x="2322.171875" xlink:href="#DejaVuSans-65"/>
     <use x="2383.6953125" xlink:href="#DejaVuSans-6c"/>
     <use x="2411.47851562" xlink:href="#DejaVuSans-20"/>
     <use x="2443.265625" xlink:href="#DejaVuSans-30"/>
     <use x="2506.88867188" xlink:href="#DejaVuSans-2e"/>
     <use x="2538.67578125" xlink:href="#DejaVuSans-39"/>
     <use x="2602.29882812" xlink:href="#DejaVuSans-35"/>
    </g>
   </g>
   <g id="legend_1">
    <g id="patch_7">
     <path d="
M320.24 96.203
L510.32 96.203
Q513.2 96.203 513.2 93.323
L513.2 55.28
Q513.2 52.4 510.32 52.4
L320.24 52.4
Q317.36 52.4 317.36 55.28
L317.36 93.323
Q317.36 96.203 320.24 96.203
z
" style="fill:#4d4d4d;opacity:0.5;stroke:#4d4d4d;"/>
    </g>
    <g id="patch_8">
     <path d="
M318.24 94.203
L508.32 94.203
Q511.2 94.203 511.2 91.323
L511.2 53.28
Q511.2 50.4 508.32 50.4
L318.24 50.4
Q315.36 50.4 315.36 53.28
L315.36 91.323
Q315.36 94.203 318.24 94.203
z
" style="fill:#ffffff;stroke:#000000;"/>
    </g>
    <g id="line2d_37">
     <path d="
M321.12 62.0617
L349.92 62.0617" style="fill:none;stroke:#ff0000;stroke-width:2;"/>
    </g>
    <g id="line2d_38"/>
    <g id="text_15">
     <!-- probability estimate -->
     <defs>
      <path d="
M32.1719 -5.07812
Q28.375 -14.8438 24.75 -17.8125
Q21.1406 -20.7969 15.0938 -20.7969
L7.90625 -20.7969
L7.90625 -13.2812
L13.1875 -13.2812
Q16.8906 -13.2812 18.9375 -11.5156
Q21 -9.76562 23.4844 -3.21875
L25.0938 0.875
L2.98438 54.6875
L12.5 54.6875
L29.5938 11.9219
L46.6875 54.6875
L56.2031 54.6875
z
" id="DejaVuSans-79"/>
      <path d="
M48.6875 27.2969
Q48.6875 37.2031 44.6094 42.8438
Q40.5312 48.4844 33.4062 48.4844
Q26.2656 48.4844 22.1875 42.8438
Q18.1094 37.2031 18.1094 27.2969
Q18.1094 17.3906 22.1875 11.75
Q26.2656 6.10938 33.4062 6.10938
Q40.5312 6.10938 44.6094 11.75
Q48.6875 17.3906 48.6875 27.2969
M18.1094 46.3906
Q20.9531 51.2656 25.2656 53.625
Q29.5938 56 35.5938 56
Q45.5625 56 51.7812 48.0938
Q58.0156 40.1875 58.0156 27.2969
Q58.0156 14.4062 51.7812 6.48438
Q45.5625 -1.42188 35.5938 -1.42188
Q29.5938 -1.42188 25.2656 0.953125
Q20.9531 3.32812 18.1094 8.20312
L18.1094 0
L9.07812 0
L9.07812 75.9844
L18.1094 75.9844
z
" id="DejaVuSans-62"/>
     </defs>
     <g transform="translate(361.44 67.10175)scale(0.144 -0.144)">
      <use xlink:href="#DejaVuSans-70"/>
      <use x="63.4765625" xlink:href="#DejaVuSans-72"/>
      <use x="102.33984375" xlink:href="#DejaVuSans-6f"/>
      <use x="163.521484375" xlink:href="#DejaVuSans-62"/>
      <use x="226.998046875" xlink:href="#DejaVuSans-61"/>
      <use x="288.27734375" xlink:href="#DejaVuSans-62"/>
      <use x="351.75390625" xlink:href="#DejaVuSans-69"/>
      <use x="379.537109375" xlink:href="#DejaVuSans-6c"/>
      <use x="407.3203125" xlink:href="#DejaVuSans-69"/>
      <use x="435.103515625" xlink:href="#DejaVuSans-74"/>
      <use x="474.3125" xlink:href="#DejaVuSans-79"/>
      <use x="533.4921875" xlink:href="#DejaVuSans-20"/>
      <use x="565.279296875" xlink:href="#DejaVuSans-65"/>
      <use x="626.802734375" xlink:href="#DejaVuSans-73"/>
      <use x="678.90234375" xlink:href="#DejaVuSans-74"/>
      <use x="718.111328125" xlink:href="#DejaVuSans-69"/>
      <use x="745.89453125" xlink:href="#DejaVuSans-6d"/>
      <use x="843.306640625" xlink:href="#DejaVuSans-61"/>
      <use x="904.5859375" xlink:href="#DejaVuSans-74"/>
      <use x="943.794921875" xlink:href="#DejaVuSans-65"/>
     </g>
    </g>
    <g id="line2d_39">
     <path d="
M321.12 83.1983
L349.92 83.1983" style="fill:none;stroke:#00ff00;"/>
    </g>
    <g id="line2d_40"/>
    <g id="text_16">
     <!-- bounds -->
     <defs>
      <path d="
M45.4062 46.3906
L45.4062 75.9844
L54.3906 75.9844
L54.3906 0
L45.4062 0
L45.4062 8.20312
Q42.5781 3.32812 38.25 0.953125
Q33.9375 -1.42188 27.875 -1.42188
Q17.9688 -1.42188 11.7344 6.48438
Q5.51562 14.4062 5.51562 27.2969
Q5.51562 40.1875 11.7344 48.0938
Q17.9688 56 27.875 56
Q33.9375 56 38.25 53.625
Q42.5781 51.2656 45.4062 46.3906
M14.7969 27.2969
Q14.7969 17.3906 18.875 11.75
Q22.9531 6.10938 30.0781 6.10938
Q37.2031 6.10938 41.2969 11.75
Q45.4062 17.3906 45.4062 27.2969
Q45.4062 37.2031 41.2969 42.8438
Q37.2031 48.4844 30.0781 48.4844
Q22.9531 48.4844 18.875 42.8438
Q14.7969 37.2031 14.7969 27.2969" id="DejaVuSans-64"/>
     </defs>
     <g transform="translate(361.44 88.23825)scale(0.144 -0.144)">
      <use xlink:href="#DejaVuSans-62"/>
      <use x="63.4765625" xlink:href="#DejaVuSans-6f"/>
      <use x="124.658203125" xlink:href="#DejaVuSans-75"/>
      <use x="188.037109375" xlink:href="#DejaVuSans-6e"/>
      <use x="251.416015625" xlink:href="#DejaVuSans-64"/>
      <use x="314.892578125" xlink:href="#DejaVuSans-73"/>
     </g>
    </g>
   </g>
  </g>
 </g>
 <defs>
  <clipPath id="p7ff5b81e1d">
   <rect height="345.6" width="446.4" x="72.0" y="43.2"/>
  </clipPath>
 </defs>
</svg>
