<?xml version="1.0" encoding="utf-8" standalone="no"?>
<!DOCTYPE svg PUBLIC "-//W3C//DTD SVG 1.1//EN"
  "http://www.w3.org/Graphics/SVG/1.1/DTD/svg11.dtd">
<!-- Created with matplotlib (http://matplotlib.sourceforge.net/) -->
<svg height="432pt" version="1.1" viewBox="0 0 576 432" width="576pt" xmlns="http://www.w3.org/2000/svg" xmlns:xlink="http://www.w3.org/1999/xlink">
 <defs>
  <style type="text/css">
*{stroke-linecap:square;stroke-linejoin:round;}
  </style>
 </defs>
 <g id="figure_1">
  <g id="patch_1">
   <path d="
M0 432
L576 432
L576 0
L0 0
z
" style="fill:#ffffff;"/>
  </g>
  <g id="axes_1">
   <g id="patch_2">
    <path d="
M72 388.8
L518.4 388.8
L518.4 43.2
L72 43.2
z
" style="fill:#ffffff;"/>
   </g>
   <g id="line2d_1">
    <path clip-path="url(#p7ff5b81e1d)" d="
M72 216
L72.2792 263.126
L72.5583 278.835
L72.8375 286.689
L73.3959 294.544
L73.675 296.788
L73.9542 286.689
L74.5126 291.402
L75.0709 294.544
L75.3501 295.752
L75.9084 285.118
L76.1876 286.689
L76.4668 282.531
L76.746 273.599
L77.5835 278.835
L78.421 282.762
L79.2585 285.816
L79.5377 283.323
L80.6544 286.689
L80.9336 287.403
L81.2128 285.303
L81.7711 286.689
L82.0503 284.779
L82.3295 285.449
L82.6086 283.668
L82.8878 284.333
L83.167 282.666
L84.2837 285.118
L84.5629 285.665
L84.842 284.182
L86.2379 286.689
L87.0754 287.974
L87.3546 286.689
L87.6338 287.103
L88.1921 284.692
L89.8672 287.052
L90.7047 288.075
L90.9839 287.031
L91.263 287.362
L91.5422 286.357
L92.6589 287.632
L92.9381 286.689
L93.2173 284.547
L95.1715 286.689
L95.4507 286.966
L95.7298 285.045
L96.009 285.335
L96.2882 284.547
L97.6841 285.929
L98.2424 284.457
L100.476 286.46
L100.755 286.689
L101.034 286.016
L103.268 287.732
L104.105 288.314
L104.663 287.089
L104.943 287.283
L105.222 286.689
L106.338 287.449
L106.618 286.878
L107.176 287.246
L107.455 286.689
L109.409 287.911
L109.968 286.861
L111.643 287.843
L111.922 287.344
L114.714 288.831
L114.993 288.361
L118.343 289.934
L118.622 289.494
L119.739 289.977
L120.018 289.549
L120.856 289.902
L121.972 288.26
L122.251 288.382
L122.531 287.984
L124.485 288.809
L124.764 288.425
L125.043 288.54
L125.322 288.162
L126.997 288.831
L127.277 288.465
L127.556 288.574
L127.835 288.213
L128.114 288.322
L128.393 287.966
L131.185 289.012
L131.464 288.671
L132.581 289.067
L132.86 288.733
L133.418 288.928
L133.698 288.6
L133.977 288.697
L134.256 288.372
L135.652 288.85
L135.931 288.533
L137.048 288.905
L137.885 287.982
L140.677 288.883
L140.956 288.589
L141.514 288.763
L141.794 288.473
L142.91 288.814
L143.189 288.53
L145.144 289.108
L145.423 288.831
L145.702 288.912
L146.26 288.366
L147.098 288.609
L147.377 288.341
L151.565 289.49
L151.844 288.906
L153.519 289.343
L153.798 289.094
L154.077 289.165
L154.356 288.6
L155.473 288.888
L155.752 288.333
L156.032 288.406
L156.311 288.167
L157.986 288.596
L158.265 288.361
L158.544 288.432
L158.823 288.2
L159.661 288.41
L159.94 288.181
L161.336 288.524
L161.894 288.075
L162.453 288.212
L163.011 287.77
L163.848 287.974
L164.128 287.757
L166.361 288.288
L166.64 288.075
L167.478 288.269
L167.757 288.059
L168.315 288.187
L168.594 287.708
L168.874 287.502
L169.432 287.632
L169.711 287.428
L171.665 287.874
L171.944 287.411
L172.503 287.538
L172.782 287.34
L174.736 287.775
L175.015 287.581
L175.853 287.763
L176.69 287.191
L177.807 287.433
L178.086 287.246
L178.365 287.306
L178.645 287.12
L180.599 287.535
L180.878 287.352
L181.436 287.469
L181.716 287.287
L182.274 287.403
L182.553 287.223
L182.832 287.281
L183.111 287.103
L184.507 287.389
L184.786 287.213
L185.345 287.326
L185.624 286.92
L186.182 287.034
L186.462 286.861
L187.299 287.031
L187.578 286.86
L188.137 286.972
L188.416 286.802
L196.512 288.323
L197.349 287.841
L197.908 287.94
L198.187 287.781
L199.583 288.027
L199.862 287.87
L200.699 288.015
L200.979 287.656
L202.095 287.85
L202.374 287.696
L206.004 288.306
L206.283 288.156
L207.4 288.338
L207.679 288.189
L208.795 288.369
L209.075 288.03
L209.633 287.739
L210.75 287.919
L211.029 287.775
L213.821 288.217
L214.379 287.934
L215.775 288.15
L216.054 287.829
L218.008 288.128
L218.287 287.991
L218.567 288.033
L218.846 287.896
L220.242 288.106
L221.079 287.702
L221.358 287.744
L221.638 287.611
L222.475 287.736
L222.754 287.604
L223.033 287.646
L223.313 287.514
L223.592 287.555
L224.15 287.293
L224.708 287.377
L225.267 287.118
L226.104 287.243
L226.383 287.114
L229.175 287.525
L229.454 287.398
L234.2 288.066
L234.48 287.619
L234.759 287.496
L235.317 287.574
L235.596 287.452
L235.875 287.491
L236.713 287.128
L238.946 287.437
L239.784 287.081
L241.459 287.309
L241.738 287.192
L245.088 287.638
L245.367 287.523
L246.205 287.632
L246.484 287.517
L251.509 288.153
L251.788 288.041
L252.068 288.075
L252.347 287.964
L253.463 288.101
L253.743 287.99
L257.372 288.425
L257.651 288.317
L258.768 288.448
L259.047 288.34
L259.605 288.405
L259.884 288.297
L261.001 288.427
L261.28 288.32
L263.514 288.576
L263.793 288.196
L264.072 288.228
L264.351 288.123
L264.91 288.187
L265.189 288.083
L266.864 288.274
L267.143 288.17
L267.422 287.933
L267.701 287.965
L267.98 287.862
L268.26 287.626
L268.818 287.69
L269.097 287.589
L269.656 287.653
L269.935 287.287
L270.214 287.186
L271.331 287.315
L271.889 287.116
L272.168 287.149
L272.447 286.919
L272.726 286.951
L273.006 286.853
L274.402 287.014
L274.681 286.916
L274.96 286.948
L275.239 286.851
L277.472 287.105
L278.031 286.912
L278.31 286.944
L278.589 286.848
L282.218 287.252
L282.498 287.157
L283.056 287.218
L283.335 287.124
L287.523 287.573
L287.802 287.481
L288.36 287.539
L288.639 287.447
L291.71 287.766
L292.548 287.493
L292.827 287.522
L293.106 287.432
L293.385 287.461
L293.665 287.371
L294.223 287.428
L294.502 287.339
L295.34 287.425
L295.619 287.336
L295.898 287.364
L296.177 287.275
L297.573 287.417
L298.131 287.357
L298.69 287.298
L299.806 287.41
L300.923 287.062
L301.481 287.119
L302.319 286.974
L303.994 287.142
L304.552 287.085
L305.669 287.195
L306.507 287.053
L308.182 287.218
L308.74 287.161
L310.415 287.213
L311.253 287.074
L313.207 287.152
L313.765 287.097
L316.278 287.227
L317.115 287.091
L323.536 287.682
L324.095 287.628
L324.374 287.653
L324.932 287.391
L329.957 287.734
L330.795 287.603
L333.028 287.696
L333.586 287.644
L338.612 287.971
L339.728 287.769
L340.845 287.765
L341.403 287.714
L346.429 288.03
L346.987 287.98
L349.499 288.086
L350.058 288.036
L353.687 288.229
L354.525 288.108
L360.666 288.488
L361.783 288.299
L364.017 288.377
L364.854 288.26
L365.133 288.281
L365.412 288.123
L365.971 288.075
L366.529 288.028
L368.204 288.065
L369.321 287.883
L371.554 287.962
L372.392 287.849
L374.346 287.906
L375.183 287.795
L378.813 287.974
L379.371 287.929
L381.605 288.005
L382.163 287.961
L383.559 287.976
L384.117 287.932
L389.98 288.26
L390.538 288.216
L391.376 288.191
L391.934 288.148
L394.447 288.238
L395.005 288.195
L396.401 288.209
L396.959 288.166
L397.797 288.142
L398.634 288.037
L404.218 288.331
L405.055 288.228
L406.451 288.242
L408.405 287.901
L409.522 287.897
L410.359 287.796
L413.71 287.939
L414.547 287.84
L416.501 287.891
L417.06 287.851
L417.339 287.869
L417.618 287.735
L419.014 287.75
L419.572 287.71
L422.922 287.85
L424.039 287.697
L425.993 287.748
L427.11 287.596
L428.785 287.629
L429.902 287.479
L432.414 287.565
L432.973 287.527
L435.764 287.629
L436.602 287.537
L439.394 287.637
L439.952 287.6
L442.744 287.7
L443.302 287.663
L446.652 287.795
L447.49 287.705
L448.886 287.718
L449.444 287.682
L452.236 287.778
L452.794 287.742
L457.819 287.967
L458.377 287.931
L460.053 287.96
L460.611 287.924
L461.728 287.92
L462.286 287.885
L464.24 287.929
L465.636 287.741
L470.103 287.928
L470.382 287.811
L471.778 287.824
L472.336 287.789
L473.174 287.771
L473.453 287.655
L477.641 287.824
L479.595 287.544
L481.27 287.573
L481.828 287.539
L484.062 287.599
L485.178 287.469
L487.97 287.558
L488.528 287.526
L492.995 287.704
L493.553 287.672
L493.833 287.687
L494.112 287.577
L496.624 287.649
L497.183 287.617
L498.299 287.614
L499.695 287.442
L506.395 287.733
L506.675 287.627
L508.35 287.653
L508.629 287.547
L509.187 287.516
L509.746 287.485
L512.258 287.555
L512.817 287.524
L514.492 287.551
L515.608 287.43
L518.4 287.514
L518.4 287.514" style="fill:none;stroke:#ff0000;stroke-width:2;"/>
   </g>
   <g id="line2d_2">
    <path clip-path="url(#p7ff5b81e1d)" d="
M72 388.8
L72.2792 352.559
L72.5583 339.115
L73.1167 327.883
L73.9542 318.831
L74.5126 317.198
L75.0709 316.086
L75.3501 315.654
L75.9084 309.335
L76.1876 309.417
L76.4668 306.378
L76.746 300.083
L77.5835 301.619
L78.421 302.752
L79.2585 303.623
L79.5377 301.647
L80.6544 302.76
L80.9336 302.995
L81.2128 301.331
L81.7711 301.841
L82.0503 300.298
L82.3295 300.567
L82.6086 299.099
L82.8878 299.384
L83.167 297.986
L84.5629 299.347
L84.842 298.107
L86.5171 299.507
L87.0754 299.904
L87.3546 298.838
L87.6338 299.041
L88.1921 297.002
L89.8672 298.243
L90.7047 298.781
L90.9839 297.898
L91.263 298.077
L91.5422 297.22
L92.6589 297.924
L92.9381 297.117
L93.2173 295.352
L95.4507 296.771
L95.7298 295.173
L96.009 295.349
L96.2882 294.654
L97.6841 295.502
L98.2424 294.201
L100.755 295.604
L101.034 295.01
L103.826 296.347
L104.105 296.468
L104.663 295.389
L104.943 295.515
L105.222 294.988
L106.338 295.485
L106.618 294.977
L107.176 295.22
L107.455 294.725
L109.409 295.536
L109.968 294.601
L111.643 295.262
L111.922 294.817
L114.714 295.826
L114.993 295.408
L118.343 296.481
L118.622 296.09
L119.739 296.422
L120.018 296.041
L120.856 296.285
L121.972 294.813
L122.251 294.899
L122.531 294.541
L124.485 295.126
L124.764 294.781
L125.043 294.862
L125.322 294.521
L126.997 295
L127.277 294.67
L127.556 294.748
L127.835 294.421
L128.114 294.5
L128.393 294.177
L131.185 294.936
L131.464 294.627
L132.581 294.915
L132.86 294.612
L133.418 294.755
L133.698 294.456
L133.977 294.527
L134.256 294.232
L135.652 294.584
L135.931 294.296
L137.048 294.57
L137.885 293.728
L140.677 294.4
L140.956 294.132
L141.514 294.261
L141.794 293.996
L142.91 294.253
L143.189 293.992
L145.144 294.427
L145.423 294.174
L145.702 294.235
L146.26 293.734
L147.098 293.919
L147.377 293.673
L151.565 294.546
L151.844 294.021
L153.519 294.355
L153.798 294.126
L154.077 294.181
L154.356 293.672
L155.473 293.894
L155.752 293.393
L156.032 293.449
L156.311 293.228
L157.986 293.56
L158.265 293.344
L158.544 293.398
L158.823 293.184
L159.661 293.347
L159.94 293.135
L161.336 293.403
L161.894 292.987
L162.453 293.094
L163.011 292.684
L163.848 292.845
L164.128 292.643
L166.361 293.06
L166.64 292.863
L167.478 293.016
L167.757 292.821
L168.315 292.922
L168.594 292.485
L168.874 292.293
L169.432 292.396
L169.711 292.206
L171.665 292.56
L171.944 292.138
L172.503 292.238
L172.782 292.054
L174.736 292.4
L175.015 292.22
L175.853 292.365
L176.69 291.83
L177.807 292.025
L178.086 291.85
L178.365 291.898
L178.645 291.724
L180.599 292.058
L180.878 291.887
L181.436 291.98
L181.716 291.811
L182.274 291.904
L182.553 291.736
L182.832 291.782
L183.111 291.615
L184.507 291.846
L184.786 291.681
L185.345 291.773
L185.624 291.4
L186.182 291.492
L186.462 291.33
L187.299 291.467
L187.578 291.307
L188.137 291.398
L188.416 291.238
L196.512 292.476
L197.349 292.024
L197.908 292.105
L198.187 291.956
L199.583 292.156
L199.862 292.009
L200.699 292.128
L200.979 291.796
L202.095 291.955
L202.374 291.811
L206.004 292.311
L206.283 292.17
L207.4 292.319
L207.679 292.179
L208.795 292.327
L209.075 292.014
L209.633 291.74
L210.75 291.889
L211.029 291.753
L213.821 292.118
L214.379 291.851
L215.775 292.03
L216.054 291.732
L218.008 291.98
L218.287 291.851
L218.567 291.886
L218.846 291.757
L220.242 291.931
L221.079 291.55
L221.358 291.585
L221.638 291.459
L222.475 291.563
L222.754 291.438
L223.033 291.473
L223.313 291.348
L223.592 291.383
L224.15 291.135
L224.708 291.205
L225.267 290.96
L226.104 291.065
L226.383 290.943
L229.175 291.286
L229.454 291.167
L234.2 291.726
L234.48 291.311
L234.759 291.195
L235.317 291.26
L235.596 291.145
L235.875 291.177
L236.713 290.833
L238.946 291.094
L239.784 290.756
L241.459 290.949
L241.738 290.838
L245.088 291.214
L245.367 291.105
L246.205 291.197
L246.484 291.088
L251.509 291.626
L251.788 291.519
L252.068 291.549
L252.347 291.443
L253.463 291.559
L253.743 291.454
L257.372 291.822
L257.651 291.719
L258.768 291.83
L259.047 291.728
L259.605 291.783
L259.884 291.681
L261.001 291.791
L261.28 291.69
L263.514 291.907
L263.793 291.553
L264.072 291.58
L264.351 291.481
L264.91 291.535
L265.189 291.436
L266.864 291.598
L267.143 291.5
L267.422 291.278
L267.701 291.305
L267.98 291.207
L268.26 290.986
L268.818 291.041
L269.097 290.944
L269.656 290.999
L269.935 290.656
L270.214 290.561
L271.331 290.671
L271.889 290.482
L272.168 290.509
L272.447 290.293
L272.726 290.321
L273.006 290.227
L274.402 290.365
L274.681 290.272
L274.96 290.3
L275.239 290.207
L277.472 290.425
L278.031 290.241
L278.31 290.268
L278.589 290.177
L282.218 290.524
L282.777 290.46
L283.056 290.486
L283.614 290.423
L287.523 290.783
L288.081 290.72
L288.36 290.745
L288.919 290.683
L291.71 290.932
L293.106 290.611
L294.223 290.599
L294.781 290.538
L295.898 290.527
L296.456 290.467
L298.131 290.506
L298.69 290.446
L300.086 290.46
L301.202 290.235
L302.04 290.201
L302.598 290.143
L305.669 290.303
L306.507 290.165
L309.019 290.274
L309.577 290.218
L310.973 290.232
L311.532 290.176
L313.207 290.214
L313.765 290.158
L316.278 290.265
L317.115 290.132
L323.536 290.646
L324.095 290.592
L324.374 290.614
L324.932 290.365
L329.957 290.658
L330.795 290.531
L333.028 290.605
L333.586 290.553
L338.612 290.833
L339.728 290.637
L340.845 290.627
L341.403 290.576
L346.429 290.847
L346.987 290.797
L349.499 290.884
L350.058 290.835
L353.687 290.997
L354.525 290.88
L360.666 291.207
L361.783 291.025
L364.017 291.087
L364.854 290.973
L365.133 290.992
L365.412 290.842
L365.971 290.794
L366.529 290.747
L368.204 290.774
L369.321 290.598
L371.554 290.662
L372.392 290.552
L374.346 290.598
L375.183 290.489
L378.813 290.642
L379.371 290.597
L381.605 290.659
L382.163 290.615
L383.559 290.623
L384.117 290.579
L389.98 290.864
L390.538 290.82
L391.376 290.794
L391.934 290.75
L394.447 290.825
L395.005 290.782
L396.401 290.79
L396.959 290.747
L397.797 290.721
L398.634 290.619
L404.218 290.875
L405.055 290.775
L406.451 290.782
L408.405 290.452
L409.522 290.444
L410.359 290.347
L413.71 290.469
L414.547 290.373
L416.501 290.413
L417.06 290.373
L417.339 290.39
L417.618 290.262
L419.014 290.271
L419.572 290.231
L422.922 290.352
L424.039 290.203
L425.993 290.243
L427.11 290.096
L428.785 290.121
L429.902 289.975
L432.414 290.048
L432.973 290.01
L435.764 290.097
L436.602 290.007
L439.394 290.093
L439.952 290.056
L442.744 290.141
L443.302 290.104
L446.652 290.218
L447.49 290.13
L448.886 290.139
L449.444 290.102
L452.236 290.185
L452.794 290.149
L457.819 290.346
L458.377 290.311
L460.053 290.333
L460.611 290.297
L461.728 290.29
L462.286 290.255
L464.24 290.291
L465.636 290.109
L470.103 290.272
L470.382 290.161
L471.778 290.169
L472.336 290.134
L473.174 290.114
L473.453 290.004
L477.641 290.151
L479.595 289.88
L481.27 289.903
L481.828 289.869
L484.062 289.919
L485.178 289.793
L487.97 289.87
L488.528 289.838
L492.995 289.995
L493.553 289.963
L493.833 289.976
L494.391 289.885
L496.624 289.933
L497.183 289.901
L498.299 289.895
L499.695 289.728
L506.395 289.987
L506.954 289.898
L508.35 289.906
L508.908 289.818
L509.746 289.742
L512.258 289.803
L512.817 289.772
L514.492 289.793
L515.608 289.675
L518.4 289.748
L518.4 289.748" style="fill:none;stroke:#00ff00;"/>
   </g>
   <g id="line2d_3">
    <path clip-path="url(#p7ff5b81e1d)" d="
M72 43.2
L72.2792 173.694
L72.5583 218.554
L73.1167 254.92
L73.675 270.634
L73.9542 254.547
L74.5126 265.606
L75.0709 273.001
L75.3501 275.85
L75.9084 260.901
L76.1876 263.961
L76.4668 258.684
L76.746 247.114
L77.5835 256.051
L78.421 262.772
L79.2585 268.01
L79.5377 264.999
L80.6544 270.618
L80.9336 271.812
L81.2128 269.275
L81.7711 271.537
L82.0503 269.259
L82.3295 270.331
L82.6086 268.238
L82.8878 269.281
L83.167 267.346
L84.2837 271.137
L84.5629 271.982
L84.842 270.258
L86.2379 274.082
L87.0754 276.045
L87.3546 274.541
L87.6338 275.164
L88.1921 272.382
L89.588 275.325
L90.7047 277.37
L90.9839 276.163
L91.263 276.648
L91.5422 275.495
L92.6589 277.34
L92.9381 276.261
L93.2173 273.742
L94.8923 276.369
L95.4507 277.162
L95.7298 274.917
L96.009 275.321
L96.2882 274.44
L97.6841 276.356
L98.2424 274.713
L100.197 277.141
L100.755 277.775
L101.034 277.022
L103.268 279.365
L104.105 280.161
L104.663 278.788
L104.943 279.052
L105.222 278.39
L106.338 279.414
L106.618 278.778
L107.176 279.272
L107.455 278.654
L109.409 280.286
L109.968 279.122
L111.643 280.423
L111.922 279.87
L114.714 281.836
L114.993 281.315
L118.064 283.226
L118.343 283.387
L118.622 282.898
L119.739 283.532
L120.018 283.058
L120.856 283.52
L121.972 281.707
L122.251 281.864
L122.531 281.427
L124.485 282.491
L124.764 282.07
L125.043 282.217
L125.322 281.803
L126.997 282.662
L127.277 282.261
L127.556 282.4
L127.835 282.005
L128.114 282.145
L128.393 281.755
L131.185 283.089
L131.464 282.716
L132.581 283.219
L132.86 282.855
L133.418 283.102
L133.698 282.743
L133.977 282.866
L134.256 282.512
L135.652 283.116
L135.931 282.771
L137.048 283.239
L137.885 282.236
L140.677 283.366
L140.956 283.047
L141.514 283.264
L141.794 282.949
L142.91 283.376
L143.189 283.068
L145.144 283.789
L145.423 283.489
L145.702 283.589
L146.26 282.998
L147.098 283.3
L147.377 283.01
L151.565 284.435
L151.844 283.791
L153.519 284.331
L153.798 284.061
L154.077 284.15
L154.356 283.528
L155.473 283.883
L155.752 283.274
L156.032 283.363
L156.311 283.105
L157.986 283.631
L158.265 283.379
L158.544 283.465
L158.823 283.215
L159.661 283.472
L159.94 283.226
L161.336 283.646
L161.894 283.163
L162.453 283.329
L163.011 282.856
L163.848 283.104
L164.128 282.871
L166.361 283.515
L166.64 283.288
L167.478 283.523
L167.757 283.298
L168.315 283.453
L168.594 282.931
L168.874 282.71
L169.432 282.867
L169.711 282.649
L171.665 283.188
L171.944 282.685
L172.503 282.837
L172.782 282.626
L174.736 283.149
L175.015 282.942
L175.853 283.161
L176.69 282.551
L177.807 282.842
L178.086 282.642
L178.365 282.714
L178.645 282.516
L180.599 283.012
L180.878 282.818
L181.436 282.957
L181.716 282.764
L182.274 282.902
L182.553 282.711
L182.832 282.78
L183.111 282.59
L184.507 282.932
L184.786 282.744
L185.345 282.879
L185.624 282.441
L186.182 282.576
L186.462 282.393
L187.299 282.594
L187.578 282.413
L188.137 282.546
L188.416 282.366
L196.233 284.112
L196.512 284.171
L197.349 283.658
L197.908 283.776
L198.187 283.607
L199.583 283.897
L199.862 283.731
L200.699 283.903
L200.979 283.516
L202.095 283.744
L202.374 283.582
L206.004 284.301
L206.283 284.142
L207.4 284.356
L207.679 284.199
L208.795 284.41
L209.075 284.046
L209.633 283.738
L210.75 283.95
L211.029 283.797
L213.821 284.316
L214.379 284.017
L215.775 284.271
L216.054 283.925
L218.008 284.276
L218.287 284.131
L218.567 284.18
L218.846 284.036
L220.242 284.282
L221.079 283.854
L221.358 283.904
L221.638 283.763
L222.475 283.909
L222.754 283.769
L223.033 283.818
L223.313 283.679
L223.592 283.728
L224.15 283.451
L224.708 283.549
L225.267 283.275
L226.104 283.421
L226.383 283.286
L229.175 283.763
L229.454 283.63
L234.2 284.406
L234.48 283.926
L234.759 283.797
L235.317 283.887
L235.596 283.759
L235.875 283.804
L236.713 283.422
L238.946 283.78
L239.784 283.405
L241.459 283.67
L241.738 283.547
L245.088 284.062
L245.367 283.94
L246.205 284.066
L246.484 283.946
L251.509 284.68
L251.788 284.562
L252.068 284.602
L252.347 284.485
L253.463 284.643
L253.743 284.526
L257.372 285.028
L257.651 284.914
L258.768 285.065
L259.047 284.951
L259.605 285.026
L259.884 284.913
L261.001 285.063
L261.28 284.951
L263.514 285.245
L263.793 284.839
L264.072 284.876
L264.351 284.766
L264.91 284.84
L265.189 284.73
L266.864 284.949
L267.143 284.841
L267.422 284.588
L267.701 284.625
L267.98 284.517
L268.26 284.267
L268.818 284.34
L269.097 284.234
L269.656 284.307
L269.935 283.917
L270.214 283.812
L271.331 283.959
L271.889 283.751
L272.168 283.788
L272.447 283.544
L272.726 283.581
L273.006 283.478
L274.402 283.662
L274.681 283.56
L274.96 283.597
L275.239 283.495
L277.472 283.785
L278.031 283.584
L278.31 283.619
L278.589 283.519
L282.218 283.979
L282.498 283.881
L283.056 283.95
L283.335 283.852
L287.523 284.363
L287.802 284.267
L288.36 284.333
L288.639 284.237
L291.71 284.6
L292.548 284.315
L292.827 284.348
L293.106 284.253
L293.385 284.286
L293.665 284.192
L294.223 284.257
L294.502 284.164
L295.34 284.261
L295.619 284.168
L295.898 284.201
L296.177 284.108
L297.573 284.269
L297.852 284.177
L298.131 284.209
L298.411 284.117
L299.806 284.277
L300.923 283.914
L301.481 283.978
L301.761 283.888
L302.04 283.92
L302.319 283.83
L303.994 284.02
L304.273 283.931
L305.669 284.088
L306.227 283.911
L308.182 284.128
L308.461 284.041
L309.019 284.102
L309.298 284.015
L310.415 284.137
L310.694 284.051
L310.973 284.081
L311.253 283.995
L312.648 284.146
L313.207 284.091
L313.765 284.035
L314.323 284.096
L314.882 284.04
L316.278 284.19
L317.115 284.05
L323.536 284.717
L324.095 284.663
L324.374 284.691
L324.932 284.416
L329.399 284.863
L330.236 284.729
L331.632 284.758
L332.191 284.705
L334.145 284.788
L334.703 284.736
L339.17 285.057
L340.008 284.927
L340.845 284.902
L341.403 284.851
L346.429 285.213
L346.987 285.162
L349.499 285.288
L350.058 285.238
L353.687 285.46
L354.525 285.336
L360.666 285.769
L361.783 285.574
L364.017 285.667
L364.854 285.547
L365.133 285.57
L365.412 285.404
L365.971 285.356
L366.529 285.309
L368.204 285.355
L369.321 285.168
L371.554 285.261
L372.392 285.145
L374.346 285.215
L375.183 285.101
L378.813 285.307
L379.371 285.262
L381.605 285.352
L382.163 285.307
L383.559 285.329
L384.117 285.284
L389.98 285.656
L390.538 285.612
L391.376 285.589
L391.934 285.545
L394.447 285.651
L395.005 285.607
L396.401 285.628
L396.959 285.584
L397.797 285.562
L398.634 285.455
L404.218 285.788
L405.055 285.682
L406.451 285.702
L408.405 285.349
L409.522 285.349
L410.359 285.246
L413.71 285.41
L414.547 285.308
L416.501 285.369
L417.06 285.329
L417.339 285.349
L417.618 285.209
L419.014 285.229
L419.572 285.19
L422.922 285.349
L424.039 285.192
L425.993 285.252
L427.11 285.096
L428.785 285.136
L429.902 284.982
L432.414 285.081
L432.973 285.043
L435.764 285.16
L436.602 285.066
L439.394 285.182
L439.952 285.144
L442.744 285.258
L443.302 285.221
L446.652 285.371
L447.49 285.279
L448.886 285.298
L449.444 285.261
L452.236 285.372
L452.794 285.335
L457.819 285.588
L458.377 285.552
L460.053 285.587
L460.611 285.551
L461.728 285.551
L462.286 285.515
L464.24 285.567
L465.636 285.374
L470.103 285.583
L470.382 285.462
L471.778 285.479
L472.336 285.444
L473.174 285.427
L473.453 285.307
L477.641 285.496
L479.595 285.208
L481.27 285.243
L481.828 285.209
L484.062 285.278
L485.178 285.145
L487.97 285.246
L488.528 285.214
L492.995 285.413
L493.553 285.381
L493.833 285.397
L494.112 285.283
L496.624 285.365
L497.183 285.333
L498.299 285.333
L499.695 285.157
L506.395 285.479
L506.675 285.368
L508.35 285.401
L508.629 285.29
L509.187 285.259
L509.746 285.228
L512.258 285.308
L512.817 285.277
L514.492 285.309
L515.608 285.185
L518.4 285.28
L518.4 285.28" style="fill:none;stroke:#00ff00;"/>
   </g>
   <g id="matplotlib.axis_1">
    <g id="xtick_1">
     <g id="line2d_4">
      <path clip-path="url(#p7ff5b81e1d)" d="
M127.556 388.8
L127.556 43.2" style="fill:none;stroke:#000000;stroke-dasharray:1.000000,3.000000;stroke-dashoffset:0.0;stroke-linecap:butt;stroke-width:0.5;"/>
     </g>
     <g id="line2d_5">
      <defs>
       <path d="
M0 0
L0 -4" id="m0012dd4eef" style="stroke:#000000;stroke-linecap:butt;stroke-width:0.5;"/>
      </defs>
      <g>
       <use style="stroke:#000000;stroke-linecap:butt;stroke-width:0.5;" x="127.555722326" xlink:href="#m0012dd4eef" y="388.8"/>
      </g>
     </g>
     <g id="line2d_6">
      <defs>
       <path d="
M0 0
L0 4" id="m476344969c" style="stroke:#000000;stroke-linecap:butt;stroke-width:0.5;"/>
      </defs>
      <g>
       <use style="stroke:#000000;stroke-linecap:butt;stroke-width:0.5;" x="127.555722326" xlink:href="#m476344969c" y="43.2"/>
      </g>
     </g>
     <g id="text_1">
      <!-- 200 -->
      <defs>
       <path d="
M31.7812 66.4062
Q24.1719 66.4062 20.3281 58.9062
Q16.5 51.4219 16.5 36.375
Q16.5 21.3906 20.3281 13.8906
Q24.1719 6.39062 31.7812 6.39062
Q39.4531 6.39062 43.2812 13.8906
Q47.125 21.3906 47.125 36.375
Q47.125 51.4219 43.2812 58.9062
Q39.4531 66.4062 31.7812 66.4062
M31.7812 74.2188
Q44.0469 74.2188 50.5156 64.5156
Q56.9844 54.8281 56.9844 36.375
Q56.9844 17.9688 50.5156 8.26562
Q44.0469 -1.42188 31.7812 -1.42188
Q19.5312 -1.42188 13.0625 8.26562
Q6.59375 17.9688 6.59375 36.375
Q6.59375 54.8281 13.0625 64.5156
Q19.5312 74.2188 31.7812 74.2188" id="DejaVuSans-30"/>
       <path d="
M19.1875 8.29688
L53.6094 8.29688
L53.6094 0
L7.32812 0
L7.32812 8.29688
Q12.9375 14.1094 22.625 23.8906
Q32.3281 33.6875 34.8125 36.5312
Q39.5469 41.8438 41.4219 45.5312
Q43.3125 49.2188 43.3125 52.7812
Q43.3125 58.5938 39.2344 62.25
Q35.1562 65.9219 28.6094 65.9219
Q23.9688 65.9219 18.8125 64.3125
Q13.6719 62.7031 7.8125 59.4219
L7.8125 69.3906
Q13.7656 71.7812 18.9375 73
Q24.125 74.2188 28.4219 74.2188
Q39.75 74.2188 46.4844 68.5469
Q53.2188 62.8906 53.2188 53.4219
Q53.2188 48.9219 51.5312 44.8906
Q49.8594 40.875 45.4062 35.4062
Q44.1875 33.9844 37.6406 27.2188
Q31.1094 20.4531 19.1875 8.29688" id="DejaVuSans-32"/>
      </defs>
      <g transform="translate(116.941347326 401.70625)scale(0.12 -0.12)">
       <use xlink:href="#DejaVuSans-32"/>
       <use x="63.623046875" xlink:href="#DejaVuSans-30"/>
       <use x="127.24609375" xlink:href="#DejaVuSans-30"/>
      </g>
     </g>
    </g>
    <g id="xtick_2">
     <g id="line2d_7">
      <path clip-path="url(#p7ff5b81e1d)" d="
M183.391 388.8
L183.391 43.2" style="fill:none;stroke:#000000;stroke-dasharray:1.000000,3.000000;stroke-dashoffset:0.0;stroke-linecap:butt;stroke-width:0.5;"/>
     </g>
     <g id="line2d_8">
      <g>
       <use style="stroke:#000000;stroke-linecap:butt;stroke-width:0.5;" x="183.390619137" xlink:href="#m0012dd4eef" y="388.8"/>
      </g>
     </g>
     <g id="line2d_9">
      <g>
       <use style="stroke:#000000;stroke-linecap:butt;stroke-width:0.5;" x="183.390619137" xlink:href="#m476344969c" y="43.2"/>
      </g>
     </g>
     <g id="text_2">
      <!-- 400 -->
      <defs>
       <path d="
M37.7969 64.3125
L12.8906 25.3906
L37.7969 25.3906
z

M35.2031 72.9062
L47.6094 72.9062
L47.6094 25.3906
L58.0156 25.3906
L58.0156 17.1875
L47.6094 17.1875
L47.6094 0
L37.7969 0
L37.7969 17.1875
L4.89062 17.1875
L4.89062 26.7031
z
" id="DejaVuSans-34"/>
      </defs>
      <g transform="translate(172.629994137 401.70625)scale(0.12 -0.12)">
       <use xlink:href="#DejaVuSans-34"/>
       <use x="63.623046875" xlink:href="#DejaVuSans-30"/>
       <use x="127.24609375" xlink:href="#DejaVuSans-30"/>
      </g>
     </g>
    </g>
    <g id="xtick_3">
     <g id="line2d_10">
      <path clip-path="url(#p7ff5b81e1d)" d="
M239.226 388.8
L239.226 43.2" style="fill:none;stroke:#000000;stroke-dasharray:1.000000,3.000000;stroke-dashoffset:0.0;stroke-linecap:butt;stroke-width:0.5;"/>
     </g>
     <g id="line2d_11">
      <g>
       <use style="stroke:#000000;stroke-linecap:butt;stroke-width:0.5;" x="239.225515947" xlink:href="#m0012dd4eef" y="388.8"/>
      </g>
     </g>
     <g id="line2d_12">
      <g>
       <use style="stroke:#000000;stroke-linecap:butt;stroke-width:0.5;" x="239.225515947" xlink:href="#m476344969c" y="43.2"/>
      </g>
     </g>
     <g id="text_3">
      <!-- 600 -->
      <defs>
       <path d="
M33.0156 40.375
Q26.375 40.375 22.4844 35.8281
Q18.6094 31.2969 18.6094 23.3906
Q18.6094 15.5312 22.4844 10.9531
Q26.375 6.39062 33.0156 6.39062
Q39.6562 6.39062 43.5312 10.9531
Q47.4062 15.5312 47.4062 23.3906
Q47.4062 31.2969 43.5312 35.8281
Q39.6562 40.375 33.0156 40.375
M52.5938 71.2969
L52.5938 62.3125
Q48.875 64.0625 45.0938 64.9844
Q41.3125 65.9219 37.5938 65.9219
Q27.8281 65.9219 22.6719 59.3281
Q17.5312 52.7344 16.7969 39.4062
Q19.6719 43.6562 24.0156 45.9219
Q28.375 48.1875 33.5938 48.1875
Q44.5781 48.1875 50.9531 41.5156
Q57.3281 34.8594 57.3281 23.3906
Q57.3281 12.1562 50.6875 5.35938
Q44.0469 -1.42188 33.0156 -1.42188
Q20.3594 -1.42188 13.6719 8.26562
Q6.98438 17.9688 6.98438 36.375
Q6.98438 53.6562 15.1875 63.9375
Q23.3906 74.2188 37.2031 74.2188
Q40.9219 74.2188 44.7031 73.4844
Q48.4844 72.75 52.5938 71.2969" id="DejaVuSans-36"/>
      </defs>
      <g transform="translate(228.590515947 401.70625)scale(0.12 -0.12)">
       <use xlink:href="#DejaVuSans-36"/>
       <use x="63.623046875" xlink:href="#DejaVuSans-30"/>
       <use x="127.24609375" xlink:href="#DejaVuSans-30"/>
      </g>
     </g>
    </g>
    <g id="xtick_4">
     <g id="line2d_13">
      <path clip-path="url(#p7ff5b81e1d)" d="
M295.06 388.8
L295.06 43.2" style="fill:none;stroke:#000000;stroke-dasharray:1.000000,3.000000;stroke-dashoffset:0.0;stroke-linecap:butt;stroke-width:0.5;"/>
     </g>
     <g id="line2d_14">
      <g>
       <use style="stroke:#000000;stroke-linecap:butt;stroke-width:0.5;" x="295.060412758" xlink:href="#m0012dd4eef" y="388.8"/>
      </g>
     </g>
     <g id="line2d_15">
      <g>
       <use style="stroke:#000000;stroke-linecap:butt;stroke-width:0.5;" x="295.060412758" xlink:href="#m476344969c" y="43.2"/>
      </g>
     </g>
     <g id="text_4">
      <!-- 800 -->
      <defs>
       <path d="
M31.7812 34.625
Q24.75 34.625 20.7188 30.8594
Q16.7031 27.0938 16.7031 20.5156
Q16.7031 13.9219 20.7188 10.1562
Q24.75 6.39062 31.7812 6.39062
Q38.8125 6.39062 42.8594 10.1719
Q46.9219 13.9688 46.9219 20.5156
Q46.9219 27.0938 42.8906 30.8594
Q38.875 34.625 31.7812 34.625
M21.9219 38.8125
Q15.5781 40.375 12.0312 44.7188
Q8.5 49.0781 8.5 55.3281
Q8.5 64.0625 14.7188 69.1406
Q20.9531 74.2188 31.7812 74.2188
Q42.6719 74.2188 48.875 69.1406
Q55.0781 64.0625 55.0781 55.3281
Q55.0781 49.0781 51.5312 44.7188
Q48 40.375 41.7031 38.8125
Q48.8281 37.1562 52.7969 32.3125
Q56.7812 27.4844 56.7812 20.5156
Q56.7812 9.90625 50.3125 4.23438
Q43.8438 -1.42188 31.7812 -1.42188
Q19.7344 -1.42188 13.25 4.23438
Q6.78125 9.90625 6.78125 20.5156
Q6.78125 27.4844 10.7812 32.3125
Q14.7969 37.1562 21.9219 38.8125
M18.3125 54.3906
Q18.3125 48.7344 21.8438 45.5625
Q25.3906 42.3906 31.7812 42.3906
Q38.1406 42.3906 41.7188 45.5625
Q45.3125 48.7344 45.3125 54.3906
Q45.3125 60.0625 41.7188 63.2344
Q38.1406 66.4062 31.7812 66.4062
Q25.3906 66.4062 21.8438 63.2344
Q18.3125 60.0625 18.3125 54.3906" id="DejaVuSans-38"/>
      </defs>
      <g transform="translate(284.413225258 401.70625)scale(0.12 -0.12)">
       <use xlink:href="#DejaVuSans-38"/>
       <use x="63.623046875" xlink:href="#DejaVuSans-30"/>
       <use x="127.24609375" xlink:href="#DejaVuSans-30"/>
      </g>
     </g>
    </g>
    <g id="xtick_5">
     <g id="line2d_16">
      <path clip-path="url(#p7ff5b81e1d)" d="
M350.895 388.8
L350.895 43.2" style="fill:none;stroke:#000000;stroke-dasharray:1.000000,3.000000;stroke-dashoffset:0.0;stroke-linecap:butt;stroke-width:0.5;"/>
     </g>
     <g id="line2d_17">
      <g>
       <use style="stroke:#000000;stroke-linecap:butt;stroke-width:0.5;" x="350.895309568" xlink:href="#m0012dd4eef" y="388.8"/>
      </g>
     </g>
     <g id="line2d_18">
      <g>
       <use style="stroke:#000000;stroke-linecap:butt;stroke-width:0.5;" x="350.895309568" xlink:href="#m476344969c" y="43.2"/>
      </g>
     </g>
     <g id="text_5">
      <!-- 1000 -->
      <defs>
       <path d="
M12.4062 8.29688
L28.5156 8.29688
L28.5156 63.9219
L10.9844 60.4062
L10.9844 69.3906
L28.4219 72.9062
L38.2812 72.9062
L38.2812 8.29688
L54.3906 8.29688
L54.3906 0
L12.4062 0
z
" id="DejaVuSans-31"/>
      </defs>
      <g transform="translate(336.682809568 401.70625)scale(0.12 -0.12)">
       <use xlink:href="#DejaVuSans-31"/>
       <use x="63.623046875" xlink:href="#DejaVuSans-30"/>
       <use x="127.24609375" xlink:href="#DejaVuSans-30"/>
       <use x="190.869140625" xlink:href="#DejaVuSans-30"/>
      </g>
     </g>
    </g>
    <g id="xtick_6">
     <g id="line2d_19">
      <path clip-path="url(#p7ff5b81e1d)" d="
M406.73 388.8
L406.73 43.2" style="fill:none;stroke:#000000;stroke-dasharray:1.000000,3.000000;stroke-dashoffset:0.0;stroke-linecap:butt;stroke-width:0.5;"/>
     </g>
     <g id="line2d_20">
      <g>
       <use style="stroke:#000000;stroke-linecap:butt;stroke-width:0.5;" x="406.730206379" xlink:href="#m0012dd4eef" y="388.8"/>
      </g>
     </g>
     <g id="line2d_21">
      <g>
       <use style="stroke:#000000;stroke-linecap:butt;stroke-width:0.5;" x="406.730206379" xlink:href="#m476344969c" y="43.2"/>
      </g>
     </g>
     <g id="text_6">
      <!-- 1200 -->
      <g transform="translate(392.517706379 401.70625)scale(0.12 -0.12)">
       <use xlink:href="#DejaVuSans-31"/>
       <use x="63.623046875" xlink:href="#DejaVuSans-32"/>
       <use x="127.24609375" xlink:href="#DejaVuSans-30"/>
       <use x="190.869140625" xlink:href="#DejaVuSans-30"/>
      </g>
     </g>
    </g>
    <g id="xtick_7">
     <g id="line2d_22">
      <path clip-path="url(#p7ff5b81e1d)" d="
M462.565 388.8
L462.565 43.2" style="fill:none;stroke:#000000;stroke-dasharray:1.000000,3.000000;stroke-dashoffset:0.0;stroke-linecap:butt;stroke-width:0.5;"/>
     </g>
     <g id="line2d_23">
      <g>
       <use style="stroke:#000000;stroke-linecap:butt;stroke-width:0.5;" x="462.565103189" xlink:href="#m0012dd4eef" y="388.8"/>
      </g>
     </g>
     <g id="line2d_24">
      <g>
       <use style="stroke:#000000;stroke-linecap:butt;stroke-width:0.5;" x="462.565103189" xlink:href="#m476344969c" y="43.2"/>
      </g>
     </g>
     <g id="text_7">
      <!-- 1400 -->
      <g transform="translate(448.352603189 401.70625)scale(0.12 -0.12)">
       <use xlink:href="#DejaVuSans-31"/>
       <use x="63.623046875" xlink:href="#DejaVuSans-34"/>
       <use x="127.24609375" xlink:href="#DejaVuSans-30"/>
       <use x="190.869140625" xlink:href="#DejaVuSans-30"/>
      </g>
     </g>
    </g>
    <g id="xtick_8">
     <g id="line2d_25">
      <path clip-path="url(#p7ff5b81e1d)" d="
M518.4 388.8
L518.4 43.2" style="fill:none;stroke:#000000;stroke-dasharray:1.000000,3.000000;stroke-dashoffset:0.0;stroke-linecap:butt;stroke-width:0.5;"/>
     </g>
     <g id="line2d_26">
      <g>
       <use style="stroke:#000000;stroke-linecap:butt;stroke-width:0.5;" x="518.4" xlink:href="#m0012dd4eef" y="388.8"/>
      </g>
     </g>
     <g id="line2d_27">
      <g>
       <use style="stroke:#000000;stroke-linecap:butt;stroke-width:0.5;" x="518.4" xlink:href="#m476344969c" y="43.2"/>
      </g>
     </g>
     <g id="text_8">
      <!-- 1600 -->
      <g transform="translate(504.1875 401.70625)scale(0.12 -0.12)">
       <use xlink:href="#DejaVuSans-31"/>
       <use x="63.623046875" xlink:href="#DejaVuSans-36"/>
       <use x="127.24609375" xlink:href="#DejaVuSans-30"/>
       <use x="190.869140625" xlink:href="#DejaVuSans-30"/>
      </g>
     </g>
    </g>
    <g id="text_9">
     <!-- outer iteration -->
     <defs>
      <path d="
M30.6094 48.3906
Q23.3906 48.3906 19.1875 42.75
Q14.9844 37.1094 14.9844 27.2969
Q14.9844 17.4844 19.1562 11.8438
Q23.3438 6.20312 30.6094 6.20312
Q37.7969 6.20312 41.9844 11.8594
Q46.1875 17.5312 46.1875 27.2969
Q46.1875 37.0156 41.9844 42.7031
Q37.7969 48.3906 30.6094 48.3906
M30.6094 56
Q42.3281 56 49.0156 48.375
Q55.7188 40.7656 55.7188 27.2969
Q55.7188 13.875 49.0156 6.21875
Q42.3281 -1.42188 30.6094 -1.42188
Q18.8438 -1.42188 12.1719 6.21875
Q5.51562 13.875 5.51562 27.2969
Q5.51562 40.7656 12.1719 48.375
Q18.8438 56 30.6094 56" id="DejaVuSans-6f"/>
      <path d="
M54.8906 33.0156
L54.8906 0
L45.9062 0
L45.9062 32.7188
Q45.9062 40.4844 42.875 44.3281
Q39.8438 48.1875 33.7969 48.1875
Q26.5156 48.1875 22.3125 43.5469
Q18.1094 38.9219 18.1094 30.9062
L18.1094 0
L9.07812 0
L9.07812 54.6875
L18.1094 54.6875
L18.1094 46.1875
Q21.3438 51.125 25.7031 53.5625
Q30.0781 56 35.7969 56
Q45.2188 56 50.0469 50.1719
Q54.8906 44.3438 54.8906 33.0156" id="DejaVuSans-6e"/>
      <path d="
M34.2812 27.4844
Q23.3906 27.4844 19.1875 25
Q14.9844 22.5156 14.9844 16.5
Q14.9844 11.7188 18.1406 8.90625
Q21.2969 6.10938 26.7031 6.10938
Q34.1875 6.10938 38.7031 11.4062
Q43.2188 16.7031 43.2188 25.4844
L43.2188 27.4844
z

M52.2031 31.2031
L52.2031 0
L43.2188 0
L43.2188 8.29688
Q40.1406 3.32812 35.5469 0.953125
Q30.9531 -1.42188 24.3125 -1.42188
Q15.9219 -1.42188 10.9531 3.29688
Q6 8.01562 6 15.9219
Q6 25.1406 12.1719 29.8281
Q18.3594 34.5156 30.6094 34.5156
L43.2188 34.5156
L43.2188 35.4062
Q43.2188 41.6094 39.1406 45
Q35.0625 48.3906 27.6875 48.3906
Q23 48.3906 18.5469 47.2656
Q14.1094 46.1406 10.0156 43.8906
L10.0156 52.2031
Q14.9375 54.1094 19.5781 55.0469
Q24.2188 56 28.6094 56
Q40.4844 56 46.3438 49.8438
Q52.2031 43.7031 52.2031 31.2031" id="DejaVuSans-61"/>
      <path id="DejaVuSans-20"/>
      <path d="
M9.42188 54.6875
L18.4062 54.6875
L18.4062 0
L9.42188 0
z

M9.42188 75.9844
L18.4062 75.9844
L18.4062 64.5938
L9.42188 64.5938
z
" id="DejaVuSans-69"/>
      <path d="
M8.5 21.5781
L8.5 54.6875
L17.4844 54.6875
L17.4844 21.9219
Q17.4844 14.1562 20.5 10.2656
Q23.5312 6.39062 29.5938 6.39062
Q36.8594 6.39062 41.0781 11.0312
Q45.3125 15.6719 45.3125 23.6875
L45.3125 54.6875
L54.2969 54.6875
L54.2969 0
L45.3125 0
L45.3125 8.40625
Q42.0469 3.42188 37.7188 1
Q33.4062 -1.42188 27.6875 -1.42188
Q18.2656 -1.42188 13.375 4.4375
Q8.5 10.2969 8.5 21.5781
M31.1094 56
z
" id="DejaVuSans-75"/>
      <path d="
M18.3125 70.2188
L18.3125 54.6875
L36.8125 54.6875
L36.8125 47.7031
L18.3125 47.7031
L18.3125 18.0156
Q18.3125 11.3281 20.1406 9.42188
Q21.9688 7.51562 27.5938 7.51562
L36.8125 7.51562
L36.8125 0
L27.5938 0
Q17.1875 0 13.2344 3.875
Q9.28125 7.76562 9.28125 18.0156
L9.28125 47.7031
L2.6875 47.7031
L2.6875 54.6875
L9.28125 54.6875
L9.28125 70.2188
z
" id="DejaVuSans-74"/>
      <path d="
M56.2031 29.5938
L56.2031 25.2031
L14.8906 25.2031
Q15.4844 15.9219 20.4844 11.0625
Q25.4844 6.20312 34.4219 6.20312
Q39.5938 6.20312 44.4531 7.46875
Q49.3125 8.73438 54.1094 11.2812
L54.1094 2.78125
Q49.2656 0.734375 44.1875 -0.34375
Q39.1094 -1.42188 33.8906 -1.42188
Q20.7969 -1.42188 13.1562 6.1875
Q5.51562 13.8125 5.51562 26.8125
Q5.51562 40.2344 12.7656 48.1094
Q20.0156 56 32.3281 56
Q43.3594 56 49.7812 48.8906
Q56.2031 41.7969 56.2031 29.5938
M47.2188 32.2344
Q47.125 39.5938 43.0938 43.9844
Q39.0625 48.3906 32.4219 48.3906
Q24.9062 48.3906 20.3906 44.1406
Q15.875 39.8906 15.1875 32.1719
z
" id="DejaVuSans-65"/>
      <path d="
M41.1094 46.2969
Q39.5938 47.1719 37.8125 47.5781
Q36.0312 48 33.8906 48
Q26.2656 48 22.1875 43.0469
Q18.1094 38.0938 18.1094 28.8125
L18.1094 0
L9.07812 0
L9.07812 54.6875
L18.1094 54.6875
L18.1094 46.1875
Q20.9531 51.1719 25.4844 53.5781
Q30.0312 56 36.5312 56
Q37.4531 56 38.5781 55.875
Q39.7031 55.7656 41.0625 55.5156
z
" id="DejaVuSans-72"/>
     </defs>
     <g transform="translate(252.470625 415.995)scale(0.12 -0.12)">
      <use xlink:href="#DejaVuSans-6f"/>
      <use x="61.181640625" xlink:href="#DejaVuSans-75"/>
      <use x="124.560546875" xlink:href="#DejaVuSans-74"/>
      <use x="163.76953125" xlink:href="#DejaVuSans-65"/>
      <use x="225.29296875" xlink:href="#DejaVuSans-72"/>
      <use x="266.40625" xlink:href="#DejaVuSans-20"/>
      <use x="298.193359375" xlink:href="#DejaVuSans-69"/>
      <use x="325.9765625" xlink:href="#DejaVuSans-74"/>
      <use x="365.185546875" xlink:href="#DejaVuSans-65"/>
      <use x="426.708984375" xlink:href="#DejaVuSans-72"/>
      <use x="467.822265625" xlink:href="#DejaVuSans-61"/>
      <use x="529.1015625" xlink:href="#DejaVuSans-74"/>
      <use x="568.310546875" xlink:href="#DejaVuSans-69"/>
      <use x="596.09375" xlink:href="#DejaVuSans-6f"/>
      <use x="657.275390625" xlink:href="#DejaVuSans-6e"/>
     </g>
    </g>
   </g>
   <g id="matplotlib.axis_2">
    <g id="ytick_1">
     <g id="line2d_28">
      <path clip-path="url(#p7ff5b81e1d)" d="
M72 385.654
L518.4 385.654" style="fill:none;stroke:#000000;stroke-dasharray:1.000000,3.000000;stroke-dashoffset:0.0;stroke-linecap:butt;stroke-width:0.5;"/>
     </g>
     <g id="line2d_29">
      <defs>
       <path d="
M0 0
L4 0" id="me8a85f7bf6" style="stroke:#000000;stroke-linecap:butt;stroke-width:0.5;"/>
      </defs>
      <g>
       <use style="stroke:#000000;stroke-linecap:butt;stroke-width:0.5;" x="72.0" xlink:href="#me8a85f7bf6" y="385.654008625"/>
      </g>
     </g>
     <g id="line2d_30">
      <defs>
       <path d="
M0 0
L-4 0" id="m1a32005dea" style="stroke:#000000;stroke-linecap:butt;stroke-width:0.5;"/>
      </defs>
      <g>
       <use style="stroke:#000000;stroke-linecap:butt;stroke-width:0.5;" x="518.4" xlink:href="#m1a32005dea" y="385.654008625"/>
      </g>
     </g>
     <g id="text_10">
      <!-- −0.1 -->
      <defs>
       <path d="
M10.6875 12.4062
L21 12.4062
L21 0
L10.6875 0
z
" id="DejaVuSans-2e"/>
       <path d="
M10.5938 35.5
L73.1875 35.5
L73.1875 27.2031
L10.5938 27.2031
z
" id="DejaVuSans-2212"/>
      </defs>
      <g transform="translate(41.24 390.021821125)scale(0.12 -0.12)">
       <use xlink:href="#DejaVuSans-2212"/>
       <use x="83.7890625" xlink:href="#DejaVuSans-30"/>
       <use x="147.412109375" xlink:href="#DejaVuSans-2e"/>
       <use x="179.19921875" xlink:href="#DejaVuSans-31"/>
      </g>
     </g>
    </g>
    <g id="ytick_2">
     <g id="line2d_31">
      <path clip-path="url(#p7ff5b81e1d)" d="
M72 310.252
L518.4 310.252" style="fill:none;stroke:#000000;stroke-dasharray:1.000000,3.000000;stroke-dashoffset:0.0;stroke-linecap:butt;stroke-width:0.5;"/>
     </g>
     <g id="line2d_32">
      <g>
       <use style="stroke:#000000;stroke-linecap:butt;stroke-width:0.5;" x="72.0" xlink:href="#me8a85f7bf6" y="310.252227014"/>
      </g>
     </g>
     <g id="line2d_33">
      <g>
       <use style="stroke:#000000;stroke-linecap:butt;stroke-width:0.5;" x="518.4" xlink:href="#m1a32005dea" y="310.252227014"/>
      </g>
     </g>
     <g id="text_11">
      <!-- 0.0 -->
      <g transform="translate(50.504375 314.620039514)scale(0.12 -0.12)">
       <use xlink:href="#DejaVuSans-30"/>
       <use x="63.623046875" xlink:href="#DejaVuSans-2e"/>
       <use x="95.41015625" xlink:href="#DejaVuSans-30"/>
      </g>
     </g>
    </g>
    <g id="ytick_3">
     <g id="line2d_34">
      <path clip-path="url(#p7ff5b81e1d)" d="
M72 234.85
L518.4 234.85" style="fill:none;stroke:#000000;stroke-dasharray:1.000000,3.000000;stroke-dashoffset:0.0;stroke-linecap:butt;stroke-width:0.5;"/>
     </g>
     <g id="line2d_35">
      <g>
       <use style="stroke:#000000;stroke-linecap:butt;stroke-width:0.5;" x="72.0" xlink:href="#me8a85f7bf6" y="234.850445403"/>
      </g>
     </g>
     <g id="line2d_36">
      <g>
       <use style="stroke:#000000;stroke-linecap:butt;stroke-width:0.5;" x="518.4" xlink:href="#m1a32005dea" y="234.850445403"/>
      </g>
     </g>
     <g id="text_12">
      <!-- 0.1 -->
      <g transform="translate(50.815625 239.218257903)scale(0.12 -0.12)">
       <use xlink:href="#DejaVuSans-30"/>
       <use x="63.623046875" xlink:href="#DejaVuSans-2e"/>
       <use x="95.41015625" xlink:href="#DejaVuSans-31"/>
      </g>
     </g>
    </g>
    <g id="ytick_4">
     <g id="line2d_37">
      <path clip-path="url(#p7ff5b81e1d)" d="
M72 159.449
L518.4 159.449" style="fill:none;stroke:#000000;stroke-dasharray:1.000000,3.000000;stroke-dashoffset:0.0;stroke-linecap:butt;stroke-width:0.5;"/>
     </g>
     <g id="line2d_38">
      <g>
       <use style="stroke:#000000;stroke-linecap:butt;stroke-width:0.5;" x="72.0" xlink:href="#me8a85f7bf6" y="159.448663792"/>
      </g>
     </g>
     <g id="line2d_39">
      <g>
       <use style="stroke:#000000;stroke-linecap:butt;stroke-width:0.5;" x="518.4" xlink:href="#m1a32005dea" y="159.448663792"/>
      </g>
     </g>
     <g id="text_13">
      <!-- 0.2 -->
      <g transform="translate(50.909375 163.816476292)scale(0.12 -0.12)">
       <use xlink:href="#DejaVuSans-30"/>
       <use x="63.623046875" xlink:href="#DejaVuSans-2e"/>
       <use x="95.41015625" xlink:href="#DejaVuSans-32"/>
      </g>
     </g>
    </g>
    <g id="ytick_5">
     <g id="line2d_40">
      <path clip-path="url(#p7ff5b81e1d)" d="
M72 84.0469
L518.4 84.0469" style="fill:none;stroke:#000000;stroke-dasharray:1.000000,3.000000;stroke-dashoffset:0.0;stroke-linecap:butt;stroke-width:0.5;"/>
     </g>
     <g id="line2d_41">
      <g>
       <use style="stroke:#000000;stroke-linecap:butt;stroke-width:0.5;" x="72.0" xlink:href="#me8a85f7bf6" y="84.0468821806"/>
      </g>
     </g>
     <g id="line2d_42">
      <g>
       <use style="stroke:#000000;stroke-linecap:butt;stroke-width:0.5;" x="518.4" xlink:href="#m1a32005dea" y="84.0468821806"/>
      </g>
     </g>
     <g id="text_14">
      <!-- 0.3 -->
      <defs>
       <path d="
M40.5781 39.3125
Q47.6562 37.7969 51.625 33
Q55.6094 28.2188 55.6094 21.1875
Q55.6094 10.4062 48.1875 4.48438
Q40.7656 -1.42188 27.0938 -1.42188
Q22.5156 -1.42188 17.6562 -0.515625
Q12.7969 0.390625 7.625 2.20312
L7.625 11.7188
Q11.7188 9.32812 16.5938 8.10938
Q21.4844 6.89062 26.8125 6.89062
Q36.0781 6.89062 40.9375 10.5469
Q45.7969 14.2031 45.7969 21.1875
Q45.7969 27.6406 41.2812 31.2656
Q36.7656 34.9062 28.7188 34.9062
L20.2188 34.9062
L20.2188 43.0156
L29.1094 43.0156
Q36.375 43.0156 40.2344 45.9219
Q44.0938 48.8281 44.0938 54.2969
Q44.0938 59.9062 40.1094 62.9062
Q36.1406 65.9219 28.7188 65.9219
Q24.6562 65.9219 20.0156 65.0312
Q15.375 64.1562 9.8125 62.3125
L9.8125 71.0938
Q15.4375 72.6562 20.3438 73.4375
Q25.25 74.2188 29.5938 74.2188
Q40.8281 74.2188 47.3594 69.1094
Q53.9062 64.0156 53.9062 55.3281
Q53.9062 49.2656 50.4375 45.0938
Q46.9688 40.9219 40.5781 39.3125" id="DejaVuSans-33"/>
      </defs>
      <g transform="translate(50.669375 88.4146946806)scale(0.12 -0.12)">
       <use xlink:href="#DejaVuSans-30"/>
       <use x="63.623046875" xlink:href="#DejaVuSans-2e"/>
       <use x="95.41015625" xlink:href="#DejaVuSans-33"/>
      </g>
     </g>
    </g>
    <g id="text_15">
     <!-- estimate -->
     <defs>
      <path d="
M52 44.1875
Q55.375 50.25 60.0625 53.125
Q64.75 56 71.0938 56
Q79.6406 56 84.2812 50.0156
Q88.9219 44.0469 88.9219 33.0156
L88.9219 0
L79.8906 0
L79.8906 32.7188
Q79.8906 40.5781 77.0938 44.375
Q74.3125 48.1875 68.6094 48.1875
Q61.625 48.1875 57.5625 43.5469
Q53.5156 38.9219 53.5156 30.9062
L53.5156 0
L44.4844 0
L44.4844 32.7188
Q44.4844 40.625 41.7031 44.4062
Q38.9219 48.1875 33.1094 48.1875
Q26.2188 48.1875 22.1562 43.5312
Q18.1094 38.875 18.1094 30.9062
L18.1094 0
L9.07812 0
L9.07812 54.6875
L18.1094 54.6875
L18.1094 46.1875
Q21.1875 51.2188 25.4844 53.6094
Q29.7812 56 35.6875 56
Q41.6562 56 45.8281 52.9688
Q50 49.9531 52 44.1875" id="DejaVuSans-6d"/>
      <path d="
M44.2812 53.0781
L44.2812 44.5781
Q40.4844 46.5312 36.375 47.5
Q32.2812 48.4844 27.875 48.4844
Q21.1875 48.4844 17.8438 46.4375
Q14.5 44.3906 14.5 40.2812
Q14.5 37.1562 16.8906 35.375
Q19.2812 33.5938 26.5156 31.9844
L29.5938 31.2969
Q39.1562 29.25 43.1875 25.5156
Q47.2188 21.7812 47.2188 15.0938
Q47.2188 7.46875 41.1875 3.01562
Q35.1562 -1.42188 24.6094 -1.42188
Q20.2188 -1.42188 15.4531 -0.5625
Q10.6875 0.296875 5.42188 2
L5.42188 11.2812
Q10.4062 8.6875 15.2344 7.39062
Q20.0625 6.10938 24.8125 6.10938
Q31.1562 6.10938 34.5625 8.28125
Q37.9844 10.4531 37.9844 14.4062
Q37.9844 18.0625 35.5156 20.0156
Q33.0625 21.9688 24.7031 23.7812
L21.5781 24.5156
Q13.2344 26.2656 9.51562 29.9062
Q5.8125 33.5469 5.8125 39.8906
Q5.8125 47.6094 11.2812 51.7969
Q16.75 56 26.8125 56
Q31.7812 56 36.1719 55.2656
Q40.5781 54.5469 44.2812 53.0781" id="DejaVuSans-73"/>
     </defs>
     <g transform="translate(36.24 241.580625)rotate(-90.0)scale(0.12 -0.12)">
      <use xlink:href="#DejaVuSans-65"/>
      <use x="61.5234375" xlink:href="#DejaVuSans-73"/>
      <use x="113.623046875" xlink:href="#DejaVuSans-74"/>
      <use x="152.83203125" xlink:href="#DejaVuSans-69"/>
      <use x="180.615234375" xlink:href="#DejaVuSans-6d"/>
      <use x="278.02734375" xlink:href="#DejaVuSans-61"/>
      <use x="339.306640625" xlink:href="#DejaVuSans-74"/>
      <use x="378.515625" xlink:href="#DejaVuSans-65"/>
     </g>
    </g>
   </g>
   <g id="patch_3">
    <path d="
M72 43.2
L518.4 43.2" style="fill:none;stroke:#000000;"/>
   </g>
   <g id="patch_4">
    <path d="
M518.4 388.8
L518.4 43.2" style="fill:none;stroke:#000000;"/>
   </g>
   <g id="patch_5">
    <path d="
M72 388.8
L518.4 388.8" style="fill:none;stroke:#000000;"/>
   </g>
   <g id="patch_6">
    <path d="
M72 388.8
L72 43.2" style="fill:none;stroke:#000000;"/>
   </g>
   <g id="text_16">
    <!-- MonteCarlo convergence graph at level 0.95 -->
    <defs>
     <path d="
M9.8125 72.9062
L24.5156 72.9062
L43.1094 23.2969
L61.8125 72.9062
L76.5156 72.9062
L76.5156 0
L66.8906 0
L66.8906 64.0156
L48.0938 14.0156
L38.1875 14.0156
L19.3906 64.0156
L19.3906 0
L9.8125 0
z
" id="DejaVuSans-4d"/>
     <path d="
M9.42188 75.9844
L18.4062 75.9844
L18.4062 0
L9.42188 0
z
" id="DejaVuSans-6c"/>
     <path d="
M18.1094 8.20312
L18.1094 -20.7969
L9.07812 -20.7969
L9.07812 54.6875
L18.1094 54.6875
L18.1094 46.3906
Q20.9531 51.2656 25.2656 53.625
Q29.5938 56 35.5938 56
Q45.5625 56 51.7812 48.0938
Q58.0156 40.1875 58.0156 27.2969
Q58.0156 14.4062 51.7812 6.48438
Q45.5625 -1.42188 35.5938 -1.42188
Q29.5938 -1.42188 25.2656 0.953125
Q20.9531 3.32812 18.1094 8.20312
M48.6875 27.2969
Q48.6875 37.2031 44.6094 42.8438
Q40.5312 48.4844 33.4062 48.4844
Q26.2656 48.4844 22.1875 42.8438
Q18.1094 37.2031 18.1094 27.2969
Q18.1094 17.3906 22.1875 11.75
Q26.2656 6.10938 33.4062 6.10938
Q40.5312 6.10938 44.6094 11.75
Q48.6875 17.3906 48.6875 27.2969" id="DejaVuSans-70"/>
     <path d="
M10.7969 72.9062
L49.5156 72.9062
L49.5156 64.5938
L19.8281 64.5938
L19.8281 46.7344
Q21.9688 47.4688 24.1094 47.8281
Q26.2656 48.1875 28.4219 48.1875
Q40.625 48.1875 47.75 41.5
Q54.8906 34.8125 54.8906 23.3906
Q54.8906 11.625 47.5625 5.09375
Q40.2344 -1.42188 26.9062 -1.42188
Q22.3125 -1.42188 17.5469 -0.640625
Q12.7969 0.140625 7.71875 1.70312
L7.71875 11.625
Q12.1094 9.23438 16.7969 8.0625
Q21.4844 6.89062 26.7031 6.89062
Q35.1562 6.89062 40.0781 11.3281
Q45.0156 15.7656 45.0156 23.3906
Q45.0156 31 40.0781 35.4375
Q35.1562 39.8906 26.7031 39.8906
Q22.75 39.8906 18.8125 39.0156
Q14.8906 38.1406 10.7969 36.2812
z
" id="DejaVuSans-35"/>
     <path d="
M54.8906 33.0156
L54.8906 0
L45.9062 0
L45.9062 32.7188
Q45.9062 40.4844 42.875 44.3281
Q39.8438 48.1875 33.7969 48.1875
Q26.5156 48.1875 22.3125 43.5469
Q18.1094 38.9219 18.1094 30.9062
L18.1094 0
L9.07812 0
L9.07812 75.9844
L18.1094 75.9844
L18.1094 46.1875
Q21.3438 51.125 25.7031 53.5625
Q30.0781 56 35.7969 56
Q45.2188 56 50.0469 50.1719
Q54.8906 44.3438 54.8906 33.0156" id="DejaVuSans-68"/>
     <path d="
M64.4062 67.2812
L64.4062 56.8906
Q59.4219 61.5312 53.7812 63.8125
Q48.1406 66.1094 41.7969 66.1094
Q29.2969 66.1094 22.6562 58.4688
Q16.0156 50.8281 16.0156 36.375
Q16.0156 21.9688 22.6562 14.3281
Q29.2969 6.6875 41.7969 6.6875
Q48.1406 6.6875 53.7812 8.98438
Q59.4219 11.2812 64.4062 15.9219
L64.4062 5.60938
Q59.2344 2.09375 53.4375 0.328125
Q47.6562 -1.42188 41.2188 -1.42188
Q24.6562 -1.42188 15.125 8.70312
Q5.60938 18.8438 5.60938 36.375
Q5.60938 53.9531 15.125 64.0781
Q24.6562 74.2188 41.2188 74.2188
Q47.75 74.2188 53.5312 72.4844
Q59.3281 70.75 64.4062 67.2812" id="DejaVuSans-43"/>
     <path d="
M10.9844 1.51562
L10.9844 10.5
Q14.7031 8.73438 18.5 7.8125
Q22.3125 6.89062 25.9844 6.89062
Q35.75 6.89062 40.8906 13.4531
Q46.0469 20.0156 46.7812 33.4062
Q43.9531 29.2031 39.5938 26.9531
Q35.25 24.7031 29.9844 24.7031
Q19.0469 24.7031 12.6719 31.3125
Q6.29688 37.9375 6.29688 49.4219
Q6.29688 60.6406 12.9375 67.4219
Q19.5781 74.2188 30.6094 74.2188
Q43.2656 74.2188 49.9219 64.5156
Q56.5938 54.8281 56.5938 36.375
Q56.5938 19.1406 48.4062 8.85938
Q40.2344 -1.42188 26.4219 -1.42188
Q22.7031 -1.42188 18.8906 -0.6875
Q15.0938 0.046875 10.9844 1.51562
M30.6094 32.4219
Q37.25 32.4219 41.125 36.9531
Q45.0156 41.5 45.0156 49.4219
Q45.0156 57.2812 41.125 61.8438
Q37.25 66.4062 30.6094 66.4062
Q23.9688 66.4062 20.0938 61.8438
Q16.2188 57.2812 16.2188 49.4219
Q16.2188 41.5 20.0938 36.9531
Q23.9688 32.4219 30.6094 32.4219" id="DejaVuSans-39"/>
     <path d="
M45.4062 27.9844
Q45.4062 37.75 41.375 43.1094
Q37.3594 48.4844 30.0781 48.4844
Q22.8594 48.4844 18.8281 43.1094
Q14.7969 37.75 14.7969 27.9844
Q14.7969 18.2656 18.8281 12.8906
Q22.8594 7.51562 30.0781 7.51562
Q37.3594 7.51562 41.375 12.8906
Q45.4062 18.2656 45.4062 27.9844
M54.3906 6.78125
Q54.3906 -7.17188 48.1875 -13.9844
Q42 -20.7969 29.2031 -20.7969
Q24.4688 -20.7969 20.2656 -20.0938
Q16.0625 -19.3906 12.1094 -17.9219
L12.1094 -9.1875
Q16.0625 -11.3281 19.9219 -12.3438
Q23.7812 -13.375 27.7812 -13.375
Q36.625 -13.375 41.0156 -8.76562
Q45.4062 -4.15625 45.4062 5.17188
L45.4062 9.625
Q42.625 4.78125 38.2812 2.39062
Q33.9375 0 27.875 0
Q17.8281 0 11.6719 7.65625
Q5.51562 15.3281 5.51562 27.9844
Q5.51562 40.6719 11.6719 48.3281
Q17.8281 56 27.875 56
Q33.9375 56 38.2812 53.6094
Q42.625 51.2188 45.4062 46.3906
L45.4062 54.6875
L54.3906 54.6875
z
" id="DejaVuSans-67"/>
     <path d="
M2.98438 54.6875
L12.5 54.6875
L29.5938 8.79688
L46.6875 54.6875
L56.2031 54.6875
L35.6875 0
L23.4844 0
z
" id="DejaVuSans-76"/>
     <path d="
M48.7812 52.5938
L48.7812 44.1875
Q44.9688 46.2969 41.1406 47.3438
Q37.3125 48.3906 33.4062 48.3906
Q24.6562 48.3906 19.8125 42.8438
Q14.9844 37.3125 14.9844 27.2969
Q14.9844 17.2812 19.8125 11.7344
Q24.6562 6.20312 33.4062 6.20312
Q37.3125 6.20312 41.1406 7.25
Q44.9688 8.29688 48.7812 10.4062
L48.7812 2.09375
Q45.0156 0.34375 40.9844 -0.53125
Q36.9688 -1.42188 32.4219 -1.42188
Q20.0625 -1.42188 12.7812 6.34375
Q5.51562 14.1094 5.51562 27.2969
Q5.51562 40.6719 12.8594 48.3281
Q20.2188 56 33.0156 56
Q37.1562 56 41.1094 55.1406
Q45.0625 54.2969 48.7812 52.5938" id="DejaVuSans-63"/>
    </defs>
    <g transform="translate(135.27675 38.2)scale(0.144 -0.144)">
     <use xlink:href="#DejaVuSans-4d"/>
     <use x="86.279296875" xlink:href="#DejaVuSans-6f"/>
     <use x="147.4609375" xlink:href="#DejaVuSans-6e"/>
     <use x="210.83984375" xlink:href="#DejaVuSans-74"/>
     <use x="250.048828125" xlink:href="#DejaVuSans-65"/>
     <use x="311.572265625" xlink:href="#DejaVuSans-43"/>
     <use x="381.396484375" xlink:href="#DejaVuSans-61"/>
     <use x="442.67578125" xlink:href="#DejaVuSans-72"/>
     <use x="483.7890625" xlink:href="#DejaVuSans-6c"/>
     <use x="511.572265625" xlink:href="#DejaVuSans-6f"/>
     <use x="572.75390625" xlink:href="#DejaVuSans-20"/>
     <use x="604.541015625" xlink:href="#DejaVuSans-63"/>
     <use x="659.521484375" xlink:href="#DejaVuSans-6f"/>
     <use x="720.703125" xlink:href="#DejaVuSans-6e"/>
     <use x="784.08203125" xlink:href="#DejaVuSans-76"/>
     <use x="843.26171875" xlink:href="#DejaVuSans-65"/>
     <use x="904.78515625" xlink:href="#DejaVuSans-72"/>
     <use x="944.1484375" xlink:href="#DejaVuSans-67"/>
     <use x="1007.625" xlink:href="#DejaVuSans-65"/>
     <use x="1069.1484375" xlink:href="#DejaVuSans-6e"/>
     <use x="1132.52734375" xlink:href="#DejaVuSans-63"/>
     <use x="1187.5078125" xlink:href="#DejaVuSans-65"/>
     <use x="1249.03125" xlink:href="#DejaVuSans-20"/>
     <use x="1280.81835938" xlink:href="#DejaVuSans-67"/>
     <use x="1344.29492188" xlink:href="#DejaVuSans-72"/>
     <use x="1385.40820312" xlink:href="#DejaVuSans-61"/>
     <use x="1446.6875" xlink:href="#DejaVuSans-70"/>
     <use x="1510.1640625" xlink:href="#DejaVuSans-68"/>
     <use x="1573.54296875" xlink:href="#DejaVuSans-20"/>
     <use x="1605.33007812" xlink:href="#DejaVuSans-61"/>
     <use x="1666.609375" xlink:href="#DejaVuSans-74"/>
     <use x="1705.81835938" xlink:href="#DejaVuSans-20"/>
     <use x="1737.60546875" xlink:href="#DejaVuSans-6c"/>
     <use x="1765.38867188" xlink:href="#DejaVuSans-65"/>
     <use x="1826.91210938" xlink:href="#DejaVuSans-76"/>
     <use x="1886.09179688" xlink:href="#DejaVuSans-65"/>
     <use x="1947.61523438" xlink:href="#DejaVuSans-6c"/>
     <use x="1975.3984375" xlink:href="#DejaVuSans-20"/>
     <use x="2007.18554688" xlink:href="#DejaVuSans-30"/>
     <use x="2070.80859375" xlink:href="#DejaVuSans-2e"/>
     <use x="2102.59570312" xlink:href="#DejaVuSans-39"/>
     <use x="2166.21875" xlink:href="#DejaVuSans-35"/>
    </g>
   </g>
   <g id="legend_1">
    <g id="patch_7">
     <path d="
M320.24 96.203
L510.32 96.203
Q513.2 96.203 513.2 93.323
L513.2 55.28
Q513.2 52.4 510.32 52.4
L320.24 52.4
Q317.36 52.4 317.36 55.28
L317.36 93.323
Q317.36 96.203 320.24 96.203
z
" style="fill:#4d4d4d;opacity:0.5;stroke:#4d4d4d;"/>
    </g>
    <g id="patch_8">
     <path d="
M318.24 94.203
L508.32 94.203
Q511.2 94.203 511.2 91.323
L511.2 53.28
Q511.2 50.4 508.32 50.4
L318.24 50.4
Q315.36 50.4 315.36 53.28
L315.36 91.323
Q315.36 94.203 318.24 94.203
z
" style="fill:#ffffff;stroke:#000000;"/>
    </g>
    <g id="line2d_43">
     <path d="
M321.12 62.0617
L349.92 62.0617" style="fill:none;stroke:#ff0000;stroke-width:2;"/>
    </g>
    <g id="line2d_44"/>
    <g id="text_17">
     <!-- probability estimate -->
     <defs>
      <path d="
M32.1719 -5.07812
Q28.375 -14.8438 24.75 -17.8125
Q21.1406 -20.7969 15.0938 -20.7969
L7.90625 -20.7969
L7.90625 -13.2812
L13.1875 -13.2812
Q16.8906 -13.2812 18.9375 -11.5156
Q21 -9.76562 23.4844 -3.21875
L25.0938 0.875
L2.98438 54.6875
L12.5 54.6875
L29.5938 11.9219
L46.6875 54.6875
L56.2031 54.6875
z
" id="DejaVuSans-79"/>
      <path d="
M48.6875 27.2969
Q48.6875 37.2031 44.6094 42.8438
Q40.5312 48.4844 33.4062 48.4844
Q26.2656 48.4844 22.1875 42.8438
Q18.1094 37.2031 18.1094 27.2969
Q18.1094 17.3906 22.1875 11.75
Q26.2656 6.10938 33.4062 6.10938
Q40.5312 6.10938 44.6094 11.75
Q48.6875 17.3906 48.6875 27.2969
M18.1094 46.3906
Q20.9531 51.2656 25.2656 53.625
Q29.5938 56 35.5938 56
Q45.5625 56 51.7812 48.0938
Q58.0156 40.1875 58.0156 27.2969
Q58.0156 14.4062 51.7812 6.48438
Q45.5625 -1.42188 35.5938 -1.42188
Q29.5938 -1.42188 25.2656 0.953125
Q20.9531 3.32812 18.1094 8.20312
L18.1094 0
L9.07812 0
L9.07812 75.9844
L18.1094 75.9844
z
" id="DejaVuSans-62"/>
     </defs>
     <g transform="translate(361.44 67.10175)scale(0.144 -0.144)">
      <use xlink:href="#DejaVuSans-70"/>
      <use x="63.4765625" xlink:href="#DejaVuSans-72"/>
      <use x="102.33984375" xlink:href="#DejaVuSans-6f"/>
      <use x="163.521484375" xlink:href="#DejaVuSans-62"/>
      <use x="226.998046875" xlink:href="#DejaVuSans-61"/>
      <use x="288.27734375" xlink:href="#DejaVuSans-62"/>
      <use x="351.75390625" xlink:href="#DejaVuSans-69"/>
      <use x="379.537109375" xlink:href="#DejaVuSans-6c"/>
      <use x="407.3203125" xlink:href="#DejaVuSans-69"/>
      <use x="435.103515625" xlink:href="#DejaVuSans-74"/>
      <use x="474.3125" xlink:href="#DejaVuSans-79"/>
      <use x="533.4921875" xlink:href="#DejaVuSans-20"/>
      <use x="565.279296875" xlink:href="#DejaVuSans-65"/>
      <use x="626.802734375" xlink:href="#DejaVuSans-73"/>
      <use x="678.90234375" xlink:href="#DejaVuSans-74"/>
      <use x="718.111328125" xlink:href="#DejaVuSans-69"/>
      <use x="745.89453125" xlink:href="#DejaVuSans-6d"/>
      <use x="843.306640625" xlink:href="#DejaVuSans-61"/>
      <use x="904.5859375" xlink:href="#DejaVuSans-74"/>
      <use x="943.794921875" xlink:href="#DejaVuSans-65"/>
     </g>
    </g>
    <g id="line2d_45">
     <path d="
M321.12 83.1983
L349.92 83.1983" style="fill:none;stroke:#00ff00;"/>
    </g>
    <g id="line2d_46"/>
    <g id="text_18">
     <!-- bounds -->
     <defs>
      <path d="
M45.4062 46.3906
L45.4062 75.9844
L54.3906 75.9844
L54.3906 0
L45.4062 0
L45.4062 8.20312
Q42.5781 3.32812 38.25 0.953125
Q33.9375 -1.42188 27.875 -1.42188
Q17.9688 -1.42188 11.7344 6.48438
Q5.51562 14.4062 5.51562 27.2969
Q5.51562 40.1875 11.7344 48.0938
Q17.9688 56 27.875 56
Q33.9375 56 38.25 53.625
Q42.5781 51.2656 45.4062 46.3906
M14.7969 27.2969
Q14.7969 17.3906 18.875 11.75
Q22.9531 6.10938 30.0781 6.10938
Q37.2031 6.10938 41.2969 11.75
Q45.4062 17.3906 45.4062 27.2969
Q45.4062 37.2031 41.2969 42.8438
Q37.2031 48.4844 30.0781 48.4844
Q22.9531 48.4844 18.875 42.8438
Q14.7969 37.2031 14.7969 27.2969" id="DejaVuSans-64"/>
     </defs>
     <g transform="translate(361.44 88.23825)scale(0.144 -0.144)">
      <use xlink:href="#DejaVuSans-62"/>
      <use x="63.4765625" xlink:href="#DejaVuSans-6f"/>
      <use x="124.658203125" xlink:href="#DejaVuSans-75"/>
      <use x="188.037109375" xlink:href="#DejaVuSans-6e"/>
      <use x="251.416015625" xlink:href="#DejaVuSans-64"/>
      <use x="314.892578125" xlink:href="#DejaVuSans-73"/>
     </g>
    </g>
   </g>
  </g>
 </g>
 <defs>
  <clipPath id="p7ff5b81e1d">
   <rect height="345.6" width="446.4" x="72.0" y="43.2"/>
  </clipPath>
 </defs>
</svg>
